<svg width="131" height="113" viewBox="0 0 131 113" fill="none" xmlns="http://www.w3.org/2000/svg">
<path d="M23.4099 63.1091C23.3681 63.0374 19.6321 56.0146 16.993 51.2872C16.9323 51.1254 16.8136 50.995 16.6625 50.9239C16.5113 50.8528 16.3396 50.8467 16.1841 50.9068C11.2973 51.8782 7.09229 52.6939 0.760349 54.0001C2.73273 58.8868 1.10502 55.2504 6.07621 66.4036C6.14982 66.5966 6.22335 66.7501 6.48046 66.6725C8.35377 66.2811 10.2272 65.9731 12.0992 65.5781C15.1858 64.9174 22.7117 63.3037 23.4099 63.1091Z" fill="url(#paint0_linear_61_869)"/>
<path d="M48.5874 33.2197C48.441 33.2202 48.2187 32.9507 48.1827 32.7576C47.9524 31.5256 43.8281 8.24224 43.7233 7.85536C43.5661 7.28116 43.7939 6.92131 44.3822 6.84772C46.4343 6.59088 75.969 3.16151 77.6593 2.96825C78.026 2.92692 78.2526 3.00311 78.3582 3.42876C78.6721 4.69641 83.6907 26.6331 84.1037 28.5204C84.1313 28.6331 84.1342 28.7509 84.1124 28.865C84.0905 28.9791 84.0444 29.0866 83.9775 29.1795C83.9107 29.2723 83.8247 29.3481 83.726 29.4013C83.6274 29.4545 83.5186 29.4836 83.4078 29.4865C81.9383 29.6094 49.102 33.2563 48.5874 33.2197Z" fill="#DBDEE1"/>
<path d="M24.0474 69.5864C23.8821 68.3915 23.4704 67.4862 24.4837 67.1556C25.2612 66.9012 25.2544 66.9213 25.2515 65.5335C25.1747 64.0146 25.6289 62.5181 26.5286 61.3252C27.1184 60.4205 27.8724 59.6468 28.7475 59.0486C29.6226 58.4503 30.6014 58.0393 31.6279 57.8389C33.3021 57.4633 33.7245 57.2293 38.2039 57.7805C39.778 57.974 44.1357 58.8862 46.1433 58.914C48.6134 58.9482 50.7867 58.0294 50.029 55.5463C48.9915 52.1279 45.9622 50.6981 42.7036 48.5486C41.0682 47.4695 39.7176 46.5016 40.8955 44.6584C41.4533 43.8453 42.1975 43.1929 43.0592 42.762C45.4554 41.4345 45.3531 41.5979 46.546 41.4011C46.5459 41.3242 46.5456 41.1698 46.6187 41.1315C47.0969 40.7443 46.942 40.2829 46.8363 39.8192C46.6587 38.782 46.6941 37.7168 46.9401 36.6948C47.0131 36.4132 47.17 36.1634 47.3877 35.9818C47.6054 35.8002 47.8727 35.6964 48.1505 35.6855C49.7328 35.5515 84.26 31.6467 85.7266 31.4469C86.271 31.3498 86.8293 31.3855 87.3583 31.551C87.8873 31.7166 88.3729 32.0077 88.7775 32.4018C92.0831 35.4413 98.3357 40.5156 101.585 43.3174C101.899 43.5284 102.137 43.8453 102.258 44.2163C102.379 44.5872 102.376 44.9904 102.251 45.3598C102.096 45.8366 101.962 47.4748 100.014 47.7191C94.1002 48.4609 69.8653 51.0763 61.7059 52.115C57.4135 52.6609 52.9117 49.5776 50.1213 46.1709C49.21 45.1302 48.4183 43.9806 47.7626 42.7458C47.6889 42.5147 47.208 42.5506 47.101 42.4389C46.8429 42.0151 46.5127 42.1705 46.1825 42.2872C44.4147 42.7401 42.8167 43.7393 41.5951 45.1556C40.2398 46.8973 43.0447 47.6719 46.7489 50.2698C48.7772 51.6918 50.9918 54.2446 50.9503 56.6979C50.9209 57.2447 50.7526 57.7734 50.4628 58.2291C50.173 58.6847 49.7724 59.0506 49.3025 59.2888C45.4218 61.1035 38.6077 58.1507 33.8707 58.4866C30.929 58.6944 28.4894 59.9006 26.9727 62.6737C26.3415 63.7779 26.0371 65.054 26.0982 66.3398C26.0988 66.6487 26.1725 66.8798 26.5401 66.9555C27.2389 67.031 27.3571 67.6456 27.5006 68.2256C27.6966 69.0324 27.6877 69.0152 28.46 68.9173C39.3036 67.5545 34.9581 67.9037 38.4866 67.5368C38.9977 67.5262 39.501 67.6685 39.9377 67.947C40.3745 68.2255 40.7266 68.6288 40.9531 69.1098C42.5837 72.8266 48.5075 85.0767 48.6683 87.0983C48.7417 87.542 48.6493 87.9983 48.4105 88.3725C48.1717 88.7468 47.8048 89.0101 47.3861 89.1078C46.0035 89.7278 44.5642 90.1974 43.0906 90.5092C43.0099 90.5295 28.7058 93.7208 26.4921 93.953C25.8299 94.0225 23.5168 94.1551 22.5605 93.6178C20.2764 92.8754 18.5564 88.6172 17.5862 86.3056C13.3369 76.1804 13.4048 75.9022 13.2254 73.8613C13.1731 73.3892 13.2905 72.9135 13.5548 72.5273C13.819 72.1412 14.211 71.8725 14.6539 71.7738C16.8901 71.1738 19.1306 70.6671 21.3738 70.1338C22.808 69.7919 23.9142 69.7276 24.0474 69.5864ZM15.2082 76.8257C15.1411 76.8382 15.0776 76.8668 15.0226 76.909C14.9675 76.9513 14.9224 77.0063 14.8906 77.0696C14.8589 77.133 14.8413 77.2031 14.8393 77.2747C14.8373 77.3462 14.8509 77.4173 14.8791 77.4825C16.0294 80.1929 21.0425 91.1175 21.2635 91.425C21.5377 91.7115 46.9706 86.3506 47.0431 86.3339C47.1202 86.3164 47.1925 86.2809 47.2548 86.23C47.317 86.1792 47.3676 86.1143 47.4027 86.0402C47.4379 85.966 47.4567 85.8846 47.4577 85.8018C47.4588 85.719 47.4421 85.6371 47.4089 85.562C46.1911 82.9222 41.7252 72.9664 41.3603 72.196C41.3158 72.1285 41.2546 72.0751 41.1833 72.0414C41.1119 72.0077 41.0332 71.995 40.9556 72.0047C38.0897 72.5147 19.0275 76.0815 15.2082 76.8257ZM48.7539 42.6681C49.5182 44.1675 50.4863 45.5419 51.6278 46.7483C55.1684 50.2576 59.1736 51.4955 60.4543 51.3911C61.6289 51.2935 97.0021 47.1692 99.5714 46.839C99.9924 46.8164 100.393 46.6427 100.707 46.3469C101.021 46.0511 101.229 45.6511 101.295 45.214C101.353 44.9808 101.35 44.7353 101.285 44.5043C101.219 44.2732 101.095 44.0654 100.925 43.9034C96.6368 40.1988 92.3389 36.421 88.0801 32.6797C87.8686 32.465 87.6124 32.3048 87.3318 32.2119C87.0511 32.119 86.7536 32.0959 86.4629 32.1444C83.8985 32.5493 52.0859 36.2024 48.448 36.617C47.1941 36.7594 47.5212 37.1119 47.8309 40.3212C47.8644 40.6688 48.0521 40.7831 48.3792 40.7821C48.7321 40.7756 49.0785 40.8824 49.3719 41.0881C49.6464 41.3929 49.8486 41.7615 49.9619 42.1638C50.1096 42.4723 49.9629 42.6666 49.6324 42.6676C49.3407 42.7063 49.0456 42.7065 48.7539 42.6681Z" fill="#DBDEE1"/>
<path d="M96.6806 15.7961C96.3477 14.6399 96.0512 13.5223 95.6816 12.4438C95.5511 10.7393 95.6589 9.02389 96.0016 7.35192C96.5484 7.06295 97.2757 8.70505 98.2481 9.77462C99.0189 10.6228 99.1334 11.7007 99.4296 12.7026C99.5778 13.205 99.7251 13.6658 99.8733 14.1667C99.8932 14.1691 99.9134 14.1668 99.9325 14.16C99.9515 14.1533 99.9689 14.1422 99.9833 14.1276C99.9091 13.625 99.6047 8.65211 99.6009 6.80168C99.5986 5.65235 100.423 4.46246 101.471 4.983C102.476 5.48283 102.562 6.53637 102.726 7.71755C103.497 7.63838 103.594 7.71495 103.754 8.52476C103.913 9.36481 103.915 10.2296 103.759 11.0705C103.684 11.3883 103.585 11.5193 103.392 11.4186C103.316 10.4131 103.092 8.3723 103.055 8.37241C102.989 8.6389 102.941 8.90977 102.91 9.18313C103.024 10.9954 103.175 12.8076 103.362 14.6196C103.362 14.7274 103.463 15.2809 103.767 15.1212C104.232 12.2303 104.852 9.36923 105.625 6.55163C105.808 5.79611 106.32 5.08773 107.055 5.35132C107.252 5.48547 107.406 5.67795 107.498 5.90431C107.59 6.13068 107.616 6.38072 107.573 6.62267C107.573 6.69953 107.536 6.73843 107.536 6.81601C107.72 6.88787 107.877 7.02047 107.983 7.19395C108.09 7.36742 108.14 7.57243 108.126 7.77826C108.146 8.66606 108.148 9.51298 108.131 10.4009C108.124 10.4954 108.085 10.5841 108.021 10.6505C107.956 10.7168 107.871 10.7562 107.781 10.7612C107.691 10.7662 107.602 10.7366 107.531 10.6778C107.46 10.619 107.412 10.5351 107.396 10.4419C107.379 10.1564 107.342 9.8727 107.284 9.59314C105.375 19.7317 106.741 14.8106 109.048 9.70352C109.252 9.32638 109.498 8.97619 109.781 8.66045C110.062 8.21805 110.382 7.80396 110.736 7.42349C110.79 7.32705 110.864 7.24519 110.953 7.18453C111.043 7.12386 111.144 7.08609 111.25 7.07427C111.58 7.07328 111.623 7.30446 111.655 7.65204C111.745 8.61435 111.88 9.54132 111.992 10.505C112.053 10.8266 111.95 10.9656 109.945 15.6408C109.796 15.9875 109.946 16.1752 110.203 16.3346C110.501 16.5205 110.829 16.7185 111.123 16.8714C111.351 16.994 111.533 17.1937 111.64 17.4383C111.747 17.6829 111.773 17.9582 111.713 18.2201C111.429 20.1561 109.036 34.1903 108.774 35.9316C108.135 40.1767 102.227 39.3935 98.2351 38.5089C96.2301 38.0653 96.3684 36.7905 95.876 34.5824C95.6095 33.3886 92.5686 19.9274 92.0583 18.0088C91.5833 16.2373 94.9513 15.7036 96.6806 15.7961ZM110.576 18.6473C104.701 19.9766 98.896 20.1096 93.1606 18.0055C94.7692 26.3528 95.5224 28.6248 97.4602 36.3103C97.7002 37.2642 98.2761 37.1404 98.6008 37.3125C103.028 37.8021 104.751 38.3716 106.72 37.4039C106.996 37.2986 107.24 37.1176 107.427 36.8796C107.614 36.6417 107.737 36.3555 107.783 36.0509C110.449 20.8853 109.63 24.4651 110.572 18.6473L110.576 18.6473ZM96.492 12.2481C96.786 14.1384 97.2814 15.988 97.9689 17.762C98.0095 17.8549 98.0732 17.9346 98.1534 17.9927C98.8146 18.1064 99.4757 18.1813 100.174 18.2568C100.063 17.7909 98.3466 12.0845 98.3245 12.0127C97.9922 11.1251 96.3411 12.056 96.4879 12.2481L96.492 12.2481ZM110.267 11.0884C110.083 11.1278 109.899 11.2871 109.716 11.2445C109.568 11.2105 109.458 10.9752 109.311 10.7831C108.324 13.2155 107.117 15.5307 106.24 18.082C106.901 18.0024 107.452 17.9239 108.003 17.8454C108.27 17.8446 108.303 17.675 110.599 12.0134C110.72 11.7494 110.468 11.4463 110.262 11.0884L110.267 11.0884ZM104.939 10.5649C104.43 13.2243 103.991 15.6974 103.485 18.2828C103.999 18.2432 104.33 18.2034 104.697 18.2023C105.306 18.2005 104.96 18.218 106.519 10.984C105.964 10.8319 105.449 10.7171 104.935 10.5649L104.939 10.5649ZM102.75 18.285C102.511 14.8793 102.348 13.3016 102.258 11.7294C102.209 10.8819 102.108 10.7242 101.264 10.8072C101.04 10.8593 100.82 10.9242 100.603 11.0017C100.828 13.4311 101.054 15.8606 101.243 18.2895L102.75 18.285ZM102.072 9.88243C101.922 8.68756 101.779 7.41365 101.55 6.18167C101.406 5.40989 100.667 5.79856 100.557 5.99141C100.411 6.20508 100.335 6.4621 100.338 6.72477C100.403 9.31491 100.564 9.55865 100.566 10.2339C101.076 10.1131 101.516 9.99328 102.068 9.87885L102.072 9.88243ZM97.5539 10.5518C96.8537 9.43543 96.8537 9.43543 96.3764 9.5913C96.1596 11.3275 96.0119 11.0578 96.4895 11.0564C96.8777 10.9823 97.2421 10.8076 97.5497 10.5482L97.5539 10.5518ZM110.044 10.1287C110.558 9.81896 110.558 9.81896 111.072 10.5882L111.182 10.5879C111.145 10.0866 111.107 9.58529 111.069 9.08401C110.876 9.0085 110.68 8.9448 110.48 8.89326C109.782 9.70132 109.782 9.70132 110.04 10.1251L110.044 10.1287Z" fill="#DBDEE1"/>
<path d="M4.61548 106.865C4.26223 106.918 3.9036 106.919 3.55013 106.868C3.48367 106.852 3.42198 106.819 3.37064 106.772C3.3193 106.725 3.27992 106.666 3.25605 106.599C3.21894 106.522 3.36573 106.367 3.43871 106.251C3.56663 106.114 3.72179 106.008 3.89313 105.941C4.06448 105.874 4.2478 105.847 4.43005 105.863C10.8701 104.575 115.466 84.1956 127.123 81.7752C128.202 81.5507 128.861 82.6478 128.007 82.85C127.249 83.034 4.68387 106.852 4.61548 106.865Z" fill="#DBDEE1"/>
<path d="M129.52 86.0493C129.647 85.997 129.789 85.9954 129.917 86.0447C130.046 86.0941 130.153 86.191 130.218 86.3173C130.146 86.7413 129.815 86.8213 129.485 86.9365C87.8372 97.541 9.38735 112.906 5.62 112.917C5.61662 111.267 30.4519 109.121 129.52 86.0493Z" fill="#DBDEE1"/>
<path d="M22.6758 45.7935C21.6514 46.7225 18.7493 46.2621 17.7161 45.577C17.0075 45.107 16.4276 44.4517 16.0332 43.6752C15.6388 42.8988 15.4434 42.0279 15.4662 41.148C15.3525 37.4202 18.3647 36.1742 20.2716 37.8552C20.419 37.9704 20.5664 38.1244 20.676 37.8539C20.9672 37.263 21.395 36.7582 21.9203 36.386C22.4456 36.0138 23.0515 35.7861 23.6823 35.7237C27.3826 35.0417 29.2592 34.6331 34.814 35.7292C36.4705 36.0561 37.3494 37.534 37.2096 39.4243C36.9817 42.152 35.9598 44.7406 34.2825 46.8384C33.6854 47.6286 32.8185 48.1435 31.866 48.2737C30.1772 48.5518 28.4633 48.6216 26.7594 48.4815C24.6721 48.3053 23.3744 46.4185 22.6758 45.7935ZM21.1928 38.9328C21.0794 40.3201 21.3099 41.7145 21.862 42.9801C22.5921 44.5208 23.636 45.8741 24.9197 46.944C25.3852 47.3871 25.984 47.6446 26.612 47.6717C28.6142 47.8286 30.6277 47.7059 32.5996 47.3068C32.7993 47.2447 32.9777 47.1234 33.1134 46.9576C35.0796 44.8175 36.6679 41.5551 36.5494 38.5011C36.4823 36.7715 34.7597 36.2516 33.128 36.0043C29.4895 35.452 21.5393 35.0972 21.1928 38.9328ZM27.2487 36.1756C33.2405 35.5112 37.0858 37.4564 35.519 38.1953C32.7273 39.5117 28.0652 40.2799 22.7355 38.8506C22.1831 38.7028 21.2612 37.9212 22.4749 37.1927C23.3168 36.6859 26.2199 36.2893 27.2487 36.1756ZM20.3484 39.2435C20.3931 39.0057 20.3534 38.759 20.2368 38.5499C20.0012 38.2478 19.6931 38.0171 19.3444 37.8814C18.9956 37.7457 18.6186 37.71 18.2522 37.7779C17.8858 37.8457 17.5431 38.0147 17.2594 38.2676C16.9757 38.5204 16.7611 38.8479 16.6377 39.2165C16.4039 39.7912 16.2879 40.4109 16.2971 41.0356C16.3063 41.6602 16.4406 42.2758 16.6912 42.8422C16.9418 43.4086 17.3032 43.9133 17.7518 44.3233C18.2005 44.7334 18.7263 45.0398 19.2953 45.2225C20.2679 45.6252 21.3408 45.6761 22.3445 45.3671C22.1606 45.0975 21.976 44.8654 21.8284 44.6359C19.6878 45.4426 15.5389 41.2685 18.2178 39.2858C18.5183 39.0317 18.8907 38.8896 19.2764 38.882C19.6621 38.8743 20.0392 39.0015 20.3484 39.2435ZM21.6445 44.3693C20.888 43.1088 20.4664 41.6587 20.4235 40.1692C20.3641 40.015 20.2725 39.8768 20.1554 39.7648C20.0383 39.6528 19.8988 39.5699 19.7471 39.5221C19.5953 39.4742 19.4353 39.4628 19.2787 39.4886C19.1222 39.5144 18.9731 39.5768 18.8426 39.6711C16.8135 40.861 19.3421 44.3761 21.6445 44.3693ZM26.8469 37.4117C25.8194 36.8745 23.9806 37.0726 23.3948 38.039C24.5699 37.8078 25.6334 37.6078 26.8469 37.4117Z" fill="#DBDEE1"/>
<path d="M46.2772 35.078C46.4276 36.6974 45.6215 35.3106 45.5792 35.0413C45.347 33.5716 40.9611 9.83209 40.7853 8.55828C40.617 7.74532 40.6916 6.89746 40.9991 6.13034C41.3066 5.36322 41.832 4.71421 42.5036 4.27184C42.8927 4.06101 43.316 3.92888 43.7515 3.88236C44.7043 3.71214 75.4876 0.601612 76.8095 0.543783C80.9323 0.363362 80.551 0.939176 86.6055 30.2904C86.6072 31.1006 86.0271 30.8301 85.945 30.4848C85.8435 30.0585 85.6764 29.6402 85.5749 29.2138C80.2013 6.61653 80.2652 3.72431 79.7898 2.81057C79.6032 2.35803 79.2868 1.97796 78.8846 1.72332C78.4824 1.46867 78.0145 1.35213 77.5461 1.38994C76.4439 1.47225 43.6403 4.72387 43.093 5.08036C41.8124 5.90813 41.7971 7.08553 41.6296 8.17C41.6666 8.20868 45.9052 32.8422 46.2772 35.078Z" fill="#DBDEE1"/>
<path d="M20.1062 64.5845C19.2649 64.7601 16.1394 65.477 15.4063 65.6401C14.2634 65.8942 11.4898 66.3307 6.73938 67.4403C6.55391 67.4994 6.35898 67.5183 6.1664 67.4959C5.97381 67.4735 5.7876 67.4102 5.61906 67.31C5.45051 67.2097 5.30315 67.0745 5.1859 66.9127C5.06865 66.7508 4.98397 66.5655 4.93698 66.3682C-0.0915835 53.9071 0.0774955 54.278 0.17185 53.5745C0.171363 53.336 -0.0234194 53.445 13.5016 50.6807C14.4591 50.486 15.4132 50.2985 16.3659 50.0551C16.8077 49.9424 17.0278 50.2075 17.2119 50.5554C21.7865 59.1531 19.9148 56.0067 23.3335 61.7992C23.6287 62.3011 23.8562 62.7961 24.1445 63.2629C24.3333 63.5676 24.1819 63.7994 23.8892 63.8807C23.6348 63.9497 21.1724 64.3622 20.1062 64.5845ZM23.41 63.1092C23.3681 63.0375 19.6323 56.0147 16.9931 51.2873C16.9324 51.1255 16.8138 50.9951 16.6626 50.924C16.5115 50.8529 16.3398 50.8467 16.1842 50.9068C11.2974 51.8783 7.09242 52.6939 0.760474 54.0001C2.73284 58.8868 1.10515 55.2504 6.0763 66.4036C6.14991 66.5966 6.22343 66.7501 6.48054 66.6725C8.35385 66.2811 10.2273 65.9731 12.0993 65.5782C15.1858 64.9174 22.7118 63.3038 23.41 63.1092Z" fill="#DBDEE1"/>
<path d="M2.29463 31.6966C1.50469 31.8649 1.1254 30.7526 1.92483 30.5404C2.95091 30.4081 41.0647 26.7885 42.292 26.6785C42.8058 26.6325 42.99 26.7145 43.0278 27.1002C43.0655 27.4858 42.955 27.6794 42.55 27.6806C41.174 27.6876 2.51153 31.6959 2.29463 31.6966Z" fill="#DBDEE1"/>
<path d="M116.811 51.6053C114.718 51.0132 115.892 51.603 110.488 49.503C109.063 48.8782 107.726 48.0518 106.515 47.0467C106.259 46.8629 105.972 46.7327 105.669 46.6635C105.446 46.6318 105.235 46.5365 105.06 46.3878C104.885 46.2392 104.752 46.043 104.675 45.8205C104.599 45.5979 104.583 45.3577 104.627 45.1259C104.672 44.894 104.777 44.6795 104.929 44.5056C105.779 43.4397 106.88 42.6254 108.121 42.1435C110.258 41.1911 112.381 41.5144 114.477 42.2789C117.605 43.4189 121.475 44.6027 122.425 47.8094C122.573 48.3986 122.54 49.0219 122.33 49.5903C122.12 50.1586 121.744 50.6428 121.256 50.9735C118.655 52.4877 117.956 51.9295 116.811 51.6053ZM107.471 47.1983C109.778 48.7024 112.297 49.8142 114.936 50.4925C114.506 50.0441 115.419 50.6103 107.728 47.1199C107.428 46.9118 107.291 47.104 107.471 47.1983ZM109.811 42.1772C108.336 42.5408 106.256 43.5125 105.408 44.8131C105.033 45.3889 105.189 45.7835 105.852 45.969C109.277 46.8897 112.559 48.3214 115.596 50.2204C117.284 51.1083 118.618 51.8592 120.813 49.9354C121.837 49.0388 121.875 48.2729 121.174 47.0797C120.61 46.0757 119.76 45.2826 118.745 44.812C117.018 44.0428 115.252 43.3563 113.45 42.7058C112.279 42.2931 111.045 42.1139 109.811 42.1772Z" fill="#DBDEE1"/>
<path d="M103.936 61.1715C104.006 59.7051 105.066 59.1309 106.284 59.8528C106.353 59.8949 115.751 65.2989 123.094 69.7155C123.746 70.4621 124.326 71.2744 124.825 72.1405C124.995 72.4087 124.913 72.7149 124.496 72.7162C121.238 72.3459 124.13 73.5419 104.893 62.2871C104.562 61.9792 104.084 61.6724 103.936 61.1715ZM122.617 70.102L108.749 61.8898C108.638 61.7913 108.507 61.7196 108.367 61.6797C108.226 61.6398 108.079 61.6327 107.936 61.6589C107.792 61.6851 107.656 61.7439 107.537 61.8312C107.417 61.9185 107.317 62.0322 107.244 62.1644C106.944 62.5446 106.953 62.7399 107.356 62.9736C113.701 66.6404 121.61 71.4548 121.775 71.4543C122.031 71.0297 122.288 70.5656 122.617 70.102ZM123.795 71.4094L123.243 70.4859C122.545 70.7961 122.252 71.1828 122.288 71.7997C122.804 71.7213 123.393 72.1053 123.795 71.4094ZM104.89 61.5156C105.183 61.0514 105.439 60.6268 105.733 60.1626C105.644 60.1114 105.547 60.0799 105.446 60.0699C105.345 60.06 105.244 60.0718 105.148 60.1047C105.052 60.1376 104.963 60.1908 104.887 60.2611C104.811 60.3314 104.75 60.4172 104.707 60.5133C104.45 60.9767 104.561 61.3621 104.892 61.5156L104.89 61.5156ZM106.288 62.4366C106.655 61.9327 106.984 61.5474 107.312 61.1226C107.053 61.1052 106.796 61.1853 106.587 61.3484C106.379 61.5116 106.233 61.7472 106.174 62.0131C106.179 62.1309 106.287 62.321 106.287 62.4366L106.288 62.4366ZM105.553 62.0531C105.883 61.4774 106.138 61.0456 106.358 60.5852C105.807 60.7025 105.44 61.0125 105.402 61.514C105.423 61.7015 105.474 61.8838 105.554 62.0531L105.553 62.0531Z" fill="#DBDEE1"/>
<path d="M35.8663 46.3325C38.0991 46.7338 37.4734 51.6082 29.6695 52.1365C26.6408 52.3417 19.9951 51.1138 21.1388 48.6142C21.2344 48.3183 21.4104 48.0583 21.645 47.8661C21.8796 47.674 22.1627 47.558 22.4592 47.5327C22.4035 47.6496 22.3135 47.7445 22.2025 47.8036C22.0159 47.9076 21.861 48.0648 21.7557 48.257C21.6503 48.4493 21.5988 48.6688 21.607 48.8904C21.6151 49.1119 21.6827 49.3265 21.8019 49.5095C21.9211 49.6924 22.087 49.8363 22.2807 49.9246C25.5926 52.0252 32.3909 52.2333 35.7992 49.3095C35.9858 49.1639 36.1421 48.9799 36.2584 48.7686C36.3747 48.5574 36.4487 48.3234 36.4757 48.081C36.5027 47.8387 36.4822 47.5932 36.4154 47.3596C36.3486 47.1259 36.237 46.9092 36.0874 46.7226C35.9771 46.641 35.9398 46.4867 35.8663 46.3325Z" fill="#DBDEE1"/>
<path d="M112.817 20.4539C112.283 20.4555 112.18 19.9817 112.558 19.6832C113.18 18.9759 121.157 18.4234 121.226 18.4232C121.411 18.4073 121.595 18.4692 121.736 18.5954C121.877 18.7215 121.965 18.9015 121.98 19.0958C121.995 19.2901 121.936 19.4827 121.816 19.6313C121.696 19.7799 121.524 19.8724 121.339 19.8882C118.511 20.2477 115.665 20.4366 112.817 20.4539Z" fill="#DBDEE1"/>
<path d="M88.3884 21.8377C91.2615 21.485 91.7362 21.4319 92.1356 21.6721C92.2111 21.7083 92.2745 21.7674 92.3178 21.8418C92.361 21.9162 92.3821 22.0025 92.3783 22.0896C92.3745 22.1766 92.346 22.2606 92.2965 22.3306C92.247 22.4006 92.1787 22.4535 92.1003 22.4825C91.5887 22.6796 91.0598 22.8234 90.5213 22.9117C89.2374 23.0822 87.9136 23.1896 86.5912 23.2704C86.0405 23.3489 85.0434 22.2486 88.3884 21.8377Z" fill="#DBDEE1"/>
<path d="M99.5554 57.0958C99.2981 56.7496 99.0065 56.326 98.4527 56.5589C98.3426 56.598 97.2296 56.6854 96.9466 56.1777C96.4158 55.2311 94.3921 54.6768 93.6003 54.6074C86.0885 53.7851 82.7 55.4028 78.9851 57.6207C78.2694 57.9454 78.7891 57.78 76.4849 56.9343C72.042 55.1998 64.5382 55.6138 57.3883 60.4243C56.4646 61.0256 55.6766 61.8307 55.0791 62.7838C54.6167 63.5143 54.2654 63.3889 53.2441 63.8668C53.1342 63.8935 53.0323 63.9482 52.9473 64.0262C52.8624 64.1041 52.7972 64.2029 52.7574 64.3137C52.7176 64.4245 52.7045 64.544 52.7193 64.6613C52.734 64.7787 52.7762 64.8904 52.842 64.9865C53.4319 66.0263 64.1244 84.7394 65.0831 86.472C65.3784 87.0113 65.599 87.1263 66.1496 87.009C68.1698 86.5396 85.187 83.0184 88.9546 82.1581C89.5521 81.9862 90.1725 81.919 90.7907 81.9593C92.0696 82.1169 93.3576 81.753 94.389 80.9429C94.6786 80.7188 95.0219 80.5842 95.3804 80.5542C97.1062 80.3177 110.328 78.2338 111.687 78.0372C115.719 77.5833 117.116 80.8928 99.5554 57.0958ZM67.0634 85.1946C66.7891 84.9081 55.2012 64.937 55.1552 64.8653C55.4754 64.5275 54.4673 63.1075 66.8779 84.5012C67.2741 85.1904 67.2771 84.9691 67.0634 85.1946ZM72.8638 83.2485C77.3951 81.1279 82.2659 79.9226 87.2212 79.6958L72.8638 83.2485ZM74.3306 81.8556C77.5232 80.1493 80.8641 79.0597 84.2814 79.2031C80.8818 79.6998 77.5446 80.5893 74.3306 81.8556ZM67.9809 84.8061C63.7778 77.6449 59.575 70.4963 55.3724 63.3605C61.6298 57.7387 69.9949 55.5809 77.0746 58.2047C77.9486 58.5195 78.6904 59.1448 79.1719 59.9727C85.2445 69.6938 90.6315 78.047 91.3717 79.3364C82.5859 76.5087 74.9496 79.0386 67.9809 84.8061ZM92.2534 79.1793C87.9412 72.4039 83.5918 65.5517 79.2063 58.6997C83.3173 55.1086 91.9706 54.6798 96.2846 56.3341C96.6112 56.4193 110.104 74.8144 110.394 75.2682C107.29 74.5798 104.072 74.7086 101.026 75.6432C97.9607 76.3913 95.0084 77.5813 92.2534 79.1793ZM107.603 75.8168C105.072 76.2101 102.388 76.5651 99.7432 76.9588C103.268 75.9454 106.574 75.511 107.603 75.8168ZM96.2203 78.7048C96.1908 78.6596 96.1776 78.6049 96.183 78.5505C97.0275 78.3166 97.909 78.0425 98.8269 77.8867C100.678 77.586 107.98 76.4076 109.882 76.3114C110.13 76.3138 110.378 76.3519 110.617 76.4248C105.77 77.2108 100.995 77.9578 96.2203 78.7048Z" fill="#DBDEE1"/>
<path d="M104.892 61.5137C104.138 61.1644 104.767 59.678 105.697 60.1624C105.441 60.6238 105.148 61.0501 104.892 61.5137Z" fill="url(#paint1_linear_61_869)"/>
<path d="M40.2836 86.4319C40.2106 86.8559 39.99 87.0577 39.6232 87.0122C37.8909 86.7968 40.1572 87.8366 32.7458 83.2528C30.8131 82.0575 22.8881 77.6024 22.885 76.0702C23.0646 75.8808 25.1337 76.2072 25.4577 76.4095C41.8525 86.7433 39.105 84.8932 40.2836 86.4319ZM32.5972 82.5206C32.783 82.7147 36.203 84.8394 38.6666 86.3592C38.9222 86.5172 39.0341 86.3969 39.1809 86.2039C39.3275 85.9715 39.1802 85.8577 38.9965 85.7411C38.3046 85.3029 34.1767 82.6667 32.8531 81.864C32.7807 82.0881 32.6952 82.3074 32.5972 82.5206Z" fill="#DBDEE1"/>
<path d="M86.5022 33.6078C87.1743 33.7143 86.7071 33.4377 96.8442 42.5633C97.2265 42.8294 96.9472 43.1032 96.6982 43.1039C95.3027 43.2619 62.0628 47.3373 60.5573 47.5703C60.3219 47.6114 60.0803 47.5831 59.8595 47.4883C59.6386 47.3936 59.4473 47.2362 59.3068 47.0338C52.1037 37.9087 51.8739 37.9331 51.9765 37.606C52.2647 36.9974 86.4214 33.5944 86.5022 33.6078ZM58.7423 40.3248C58.3011 40.403 57.9708 40.4808 57.6034 40.5207C57.2731 40.5993 57.5669 40.714 57.7879 40.7134C59.0947 40.328 59.6562 41.23 61.1724 43.2103C60.6587 43.2887 60.2544 43.3286 59.8502 43.4067C59.4831 43.5623 59.8142 43.5225 59.8505 43.5612C60.2047 43.6011 60.5619 43.6 60.9159 43.558C61.099 43.5123 61.2908 43.5243 61.4673 43.5924C61.6439 43.6604 61.7974 43.7816 61.9088 43.9408C62.2593 44.3068 62.6279 44.6531 63.0132 44.9783C63.1235 45.0556 63.2338 45.1321 63.1231 44.8623C62.7548 44.4396 62.4235 44.0161 62.0182 43.5935C62.0106 43.5841 62.0055 43.5728 62.0032 43.5607C62.001 43.5486 62.0018 43.5361 62.0054 43.5244C62.0091 43.5127 62.0156 43.5022 62.0243 43.4939C62.033 43.4856 62.0435 43.4798 62.0549 43.477C62.6425 43.3984 65.1399 43.0439 66.4254 42.9244C66.611 42.9501 66.7813 43.0455 66.9049 43.1931C67.8532 44.1837 69.1352 45.7365 68.7456 44.9231C68.2297 44.2688 67.7165 43.5764 67.1616 42.9222C67.3085 42.8442 68.3388 42.7413 71.1653 42.4074C72.4514 42.2599 72.8629 42.0855 73.2594 42.5556C73.6709 43.0471 74.1064 43.5171 74.5118 44.0173C74.6958 44.3249 74.8426 44.1707 74.6217 43.9013C74.2531 43.3234 73.8476 42.7851 73.4427 42.1693C75.0215 41.9713 76.5647 41.7742 78.1435 41.5762C78.6909 41.5746 79.3312 42.8391 80.0575 43.3448L80.1674 43.2288C79.7626 42.6899 79.3941 42.1536 78.9886 41.6125C78.8848 41.3973 78.8584 41.5324 83.2855 40.905C83.8005 40.8316 84.1302 40.7488 84.4987 41.2871C85.1629 42.52 85.4595 42.7116 85.1981 42.0185C85.0876 41.8256 84.8292 41.2861 84.6821 40.9784C84.6715 40.9585 84.6661 40.936 84.6664 40.9132C84.6667 40.8904 84.6727 40.868 84.6838 40.8484C84.6949 40.8288 84.7108 40.8126 84.7298 40.8014C84.7487 40.7903 84.7702 40.7846 84.7919 40.7849C85.3795 40.7062 86.8493 40.4001 88.1702 40.2353C89.383 40.0837 89.7527 39.8419 90.191 40.3449C90.525 40.7275 90.891 41.0755 91.2593 41.4601C91.5165 41.7675 91.6265 41.6903 91.4055 41.3441L90.3764 40.0354C90.3587 40.0212 90.3459 40.0012 90.34 39.9787C90.334 39.9561 90.3353 39.9321 90.3435 39.9103C90.3518 39.8885 90.3665 39.8701 90.3856 39.8579C90.4047 39.8457 90.427 39.8404 90.4492 39.8427L91.6979 39.492C91.9913 39.4136 91.8447 39.3371 91.6607 39.3377C89.9429 39.5066 90.0804 39.8323 89.1612 38.6893C88.7579 38.1877 87.3204 36.9205 87.0996 36.6899C87.2181 36.6173 87.3407 36.5524 87.4667 36.4956C87.7238 36.4179 87.7236 36.3023 87.3563 36.3802C87.1487 36.4272 86.9329 36.4147 86.7315 36.344C86.6582 36.3055 86.106 35.6132 85.9215 35.3817C85.7007 35.1899 85.701 35.3055 85.8114 35.4596L86.2921 36.2678C86.3027 36.2877 86.3081 36.3102 86.3078 36.333C86.3075 36.3558 86.3015 36.3782 86.2904 36.3978C86.2793 36.4174 86.2634 36.4336 86.2444 36.4447C86.2255 36.4559 86.204 36.4616 86.1823 36.4613C84.6398 36.6585 83.1335 36.8562 81.6278 37.0144C81.1372 37.0159 80.9429 36.6681 80.4137 36.2085C80.2661 35.9388 80.1561 36.0548 80.3407 36.2856C80.5246 36.5551 80.6723 36.8248 80.8569 37.0943C80.9304 37.2485 80.8935 37.2867 80.8203 37.2869C80.1227 37.4435 78.7263 37.4828 77.8788 37.6046C75.748 37.9113 75.6332 37.9633 74.7915 36.9192C74.6004 36.6953 74.391 36.4894 74.1655 36.304C74.055 36.1507 73.9821 36.2665 74.0556 36.42C74.3876 36.8436 74.7924 37.3826 75.1608 37.8441C75.1682 37.8535 75.1733 37.8647 75.1754 37.8767C75.1776 37.8887 75.1767 37.901 75.1731 37.9126C75.1694 37.9242 75.163 37.9346 75.1544 37.9429C75.1458 37.9511 75.1354 37.957 75.1241 37.9598C74.5734 38.0003 72.2965 38.1242 71.3041 38.3182C70.497 38.4765 70.3464 38.4367 69.7235 37.6678C69.5596 37.4198 69.3745 37.1878 69.1706 36.9748C68.9127 36.6287 68.9871 36.8985 69.0607 37.0908C69.3188 37.4758 69.5769 37.8996 69.835 38.3226C69.8428 38.3403 69.847 38.3595 69.8475 38.3789C69.848 38.3984 69.8447 38.4178 69.8378 38.4359C69.8309 38.454 69.8206 38.4704 69.8075 38.4842C69.7944 38.498 69.7788 38.5088 69.7615 38.5161C68.0721 38.7912 66.4271 39.072 64.7683 39.3406C64.1616 39.4394 64.3719 39.1981 63.4064 38.1881L63.2965 38.3041C63.5183 38.6892 63.777 39.0354 64.0707 39.4583C62.6385 39.7327 61.2423 39.9272 59.8472 40.2424C59.6418 40.3062 59.4215 40.2909 59.226 40.1993C59.0305 40.1077 58.8726 39.9458 58.7808 39.7428C57.8601 38.5502 57.7132 38.6275 57.8607 38.8203C58.1064 39.3512 58.4017 39.8552 58.7423 40.3248Z" fill="url(#paint2_linear_61_869)"/>
<path d="M59.2027 49.9656C59.1341 49.894 58.5475 49.4252 59.2744 49.2327C60.7793 49.035 98.3909 44.4098 100.007 44.2125C100.323 44.2115 100.545 44.6196 100.045 44.7518C96.1738 45.2885 59.9803 49.7995 59.2027 49.9656Z" fill="#DBDEE1"/>
<path d="M48.3757 37.4629C58.452 49.2853 58.6887 48.9506 58.2461 49.3513C57.9893 49.5834 57.8075 49.3117 57.6579 49.1218C55.7323 46.6708 47.8255 37.7742 47.8252 37.6183C47.825 37.5026 47.8208 36.8109 48.3757 37.4629Z" fill="#DBDEE1"/>
<path d="M64.301 64.105C63.8759 64.3354 63.4659 64.5938 63.3434 64.2623C63.1957 63.6471 66.2924 62.222 66.6089 62.0925C69.4912 60.8962 72.5867 60.3737 75.6801 60.5612C76.2135 60.6207 76.7418 60.7224 77.2606 60.8653C78.8476 61.6903 71.2745 60.3287 64.301 64.105Z" fill="#DBDEE1"/>
<path d="M77.5627 63.4482C78.4448 63.8309 77.6 63.9504 77.4529 63.9508C75.6674 63.9671 73.8908 64.2183 72.1647 64.6985C72.0546 64.7375 71.1724 64.6247 72.0165 64.1967C75.2924 63.0855 76.0163 63.079 77.5627 63.4482Z" fill="#DBDEE1"/>
<path d="M92.6049 71.4647C92.1628 70.7333 91.72 70.04 91.2779 69.3474C91.2135 69.3034 91.1411 69.2739 91.0652 69.2608C90.9893 69.2477 90.9117 69.2512 90.8372 69.2712C90.4672 69.3793 90.0658 69.5048 89.6616 69.5836C89.8815 69.0427 90.3951 68.9255 90.8358 68.6153C90.5035 68.0381 90.2087 67.4607 89.8743 66.8446C88.5506 67.3514 88.6299 67.3253 88.2581 67.1964C88.4805 66.8445 88.0887 66.9814 89.6159 66.3052C89.1729 65.4962 88.7676 64.7274 88.3246 63.9177C88.0313 64.0342 87.7374 64.1508 87.4071 64.2674C87.406 63.728 87.8466 63.6914 88.0671 63.4559C87.7344 62.7242 87.4025 61.9917 87.0704 61.2212C87.1073 61.1831 87.0869 60.5905 87.6586 61.4127C88.6193 62.7934 88.7077 63.1839 88.9848 63.183C90.1967 62.9093 91.3716 62.5969 92.5834 62.2851C91.3291 59.8975 91.144 59.0878 93.0232 61.8981C93.0659 62.0285 93.1544 62.1368 93.2706 62.201C93.3869 62.2651 93.5221 62.2802 93.6486 62.2431C94.5291 62.1507 95.4117 62.1222 96.3668 62.0806C96.2437 61.8485 96.1448 61.6031 96.0717 61.3487C95.1074 58.2276 96.5851 61.1159 96.5852 61.1547C97.2656 63.2818 98.8992 61.4811 99.5992 62.8424C99.0114 62.8061 98.3866 62.7692 97.6517 62.7326C98.0574 63.3872 98.3891 63.9645 98.7577 64.5423C98.8443 64.7224 100.645 64.5503 101.184 65.1098C100.56 65.4586 99.9344 65.1135 99.2369 65.3469C99.5322 65.8488 99.8268 66.3508 100.159 66.8483C100.195 66.9258 100.379 66.9252 100.526 66.9248C101.077 66.9612 101.592 66.9597 102.143 66.9968C102.295 67.0302 102.443 67.0816 102.584 67.15C102.584 67.4301 102.801 67.2082 100.6 67.5797C100.932 68.1577 101.227 68.7351 101.596 69.2742C101.787 69.4747 102.417 69.3335 103.91 69.4217C104.055 69.4213 104.732 69.6721 104.536 69.8824C103.728 69.9617 102.92 70.0417 102.073 70.1211C102.137 70.4106 102.223 70.6941 102.332 70.9687C103.295 73.7429 103.256 73.8587 101.853 71.3178C101.579 70.9343 101.338 70.2777 100.97 70.2788C100.012 70.4362 99.0965 70.5933 98.1053 70.75C98.364 71.4051 98.8442 72.7154 98.9917 73.2163C99.3247 74.1405 98.7715 73.2938 98.7352 73.2551C97.8004 71.873 97.527 71.0219 97.1138 71.0231C96.012 71.2577 94.9472 71.5324 93.8454 71.7656C94.1778 72.3816 94.4725 72.9597 94.7679 73.5371C95.026 73.9609 94.7317 73.8842 94.5841 73.6533C94.3632 73.3839 94.1041 73.1519 93.8846 72.8839C93.628 72.5751 93.404 72.0758 93.1116 71.9991C92.7234 71.8652 92.3027 72.2508 91.0553 72.5454C91.2833 71.9701 91.981 71.8523 92.6049 71.4647ZM90.279 66.0331C91.4539 65.7214 92.5924 65.3704 93.7303 65.0588C93.4354 64.365 93.1036 63.7109 92.7681 62.9404C91.5561 63.1753 90.3059 63.4506 88.9859 63.7232C89.4679 64.5314 89.8711 65.3016 90.279 66.0331ZM91.8279 68.9212C92.3084 69.6913 92.7499 70.4227 93.1919 71.116C93.2217 71.1556 93.2626 71.1844 93.3088 71.198C93.3551 71.2117 93.4043 71.2096 93.4494 71.1921C94.5141 70.88 95.6157 70.5686 96.7166 70.2183C96.3485 69.5636 95.9798 68.9476 95.6112 68.3317C95.5844 68.2873 95.5455 68.2526 95.4995 68.2321C95.4535 68.2116 95.4026 68.2062 95.3537 68.2168C94.2149 68.4515 93.0768 68.6862 91.8279 68.9212ZM95.132 67.5616C94.8367 67.0223 94.5051 66.486 94.2098 65.9445C94.0778 65.6683 93.5495 65.9774 90.5744 66.5724C90.9061 67.1885 91.1643 67.6482 91.4589 68.1501C91.5329 68.2275 91.6803 68.3427 91.7904 68.3036C92.8915 68.0697 93.9933 67.8351 95.132 67.5616ZM96.2715 68.0208C97.2142 69.6321 97.4081 70.1006 97.6353 70.0999C98.5929 69.9426 99.545 69.7465 100.536 69.551C100.204 68.973 99.9097 68.4344 99.5747 67.8953C99.4709 67.6729 99.198 67.6945 96.2715 68.0208ZM93.4323 62.8608C94.5252 64.953 94.1982 64.9705 95.4938 64.8222C96.1916 64.7418 96.8893 64.6636 97.624 64.5838C97.3286 64.0064 97.0422 63.4614 96.7387 62.9666C96.7028 62.9053 96.6545 62.853 96.5974 62.8132C96.5403 62.7735 96.4756 62.7472 96.4078 62.7363C95.452 62.7585 94.4976 62.8196 93.4323 62.8608ZM94.8708 65.6336C95.2025 66.2497 95.4978 66.7502 95.832 67.2506C95.8669 67.2976 95.9115 67.3358 95.9623 67.3624C96.0132 67.389 96.069 67.4033 96.1259 67.4042C97.1177 67.2856 98.0726 67.1283 99.1008 67.0095C97.7705 64.9296 98.8147 65.3259 94.8708 65.6336Z" fill="#DBDEE1"/>
<path d="M86.114 59.2572C86.0032 58.9106 86.26 58.7166 86.5171 58.6389C90.248 57.1839 94.0707 57.4469 94.7817 58.1897C95.102 58.5242 94.75 58.7278 94.5261 58.6538C91.8551 57.7696 88.766 58.5532 86.114 59.2572Z" fill="#DBDEE1"/>
<path d="M11.4475 52.3839C12.6178 52.3918 13.7596 52.7628 14.7292 53.4504C15.6987 54.138 16.4527 55.1113 16.8963 56.2481C17.34 57.3848 17.4534 58.6341 17.2223 59.8389C16.9912 61.0436 16.426 62.1499 15.5977 63.0187C14.7694 63.8874 13.715 64.4798 12.5673 64.7212C11.4196 64.9627 10.2297 64.8424 9.14733 64.3756C8.06499 63.9088 7.13855 63.1162 6.48456 62.0977C5.83057 61.0792 5.47824 59.8801 5.4719 58.6514C5.47628 56.9899 6.10757 55.3975 7.22754 54.2228C8.34751 53.0482 9.8649 52.3869 11.4475 52.3839ZM10.577 57.6706C10.5769 57.6319 9.35933 55.1285 8.73187 53.7806C8.1453 54.3606 7.63179 54.8614 7.04514 55.4055C8.25925 56.2115 10.54 57.6708 10.577 57.6706ZM6.83714 61.4222C7.42623 62.0763 7.94188 62.6142 8.49394 63.2296C9.26307 61.9164 10.7277 59.405 10.7276 59.3662C10.6252 59.4778 8.13167 60.7388 6.83714 61.4222ZM6.57884 60.9202C7.9369 60.1834 10.3953 58.8256 10.3952 58.7875C8.99924 58.7141 7.60334 58.6802 6.09651 58.6071C6.24597 59.4191 6.39381 60.1126 6.57884 60.9202ZM16.1315 61.3154C16.3509 60.544 16.5698 59.8487 16.7887 59.1153C15.2832 59.043 12.49 58.9349 12.4531 58.9738C13.6671 59.7439 14.8442 60.5118 16.1315 61.3176L16.1315 61.3154ZM12.0004 53.074C11.9297 54.6546 11.8255 57.5872 11.8625 57.5871C12.5948 56.3508 13.3272 55.1145 14.1325 53.7623C13.3971 53.5354 12.7336 53.3053 12.0004 53.074ZM11.1643 57.4735C11.2013 57.4734 11.3418 54.5802 11.4125 53.0377C10.678 53.1937 9.98047 53.389 9.24593 53.5471C9.90974 54.9336 10.537 56.2046 11.1643 57.4757L11.1643 57.4735ZM15.8021 61.8566C14.588 61.0506 12.271 59.5914 12.2341 59.6303C12.8613 60.8626 13.4879 62.0948 14.1153 63.4046C14.702 62.9072 15.2155 62.4028 15.8021 61.8587L15.8021 61.8566ZM10.1739 58.2868C10.1738 58.248 7.96674 56.713 6.75263 55.9056C6.53381 56.639 6.31423 57.3336 6.09541 58.0676C7.56529 58.1423 8.88806 58.2152 10.1739 58.2889L10.1739 58.2868ZM16.3788 56.4163C15.0944 57.076 13.8833 57.6967 12.709 58.3172C12.7091 58.356 15.3916 58.5024 16.8245 58.575C16.6758 57.8061 16.5273 57.1127 16.3788 56.4185L16.3788 56.4163ZM13.602 63.6763C12.9376 62.3666 11.6839 59.9402 11.6839 59.9402C11.6498 61.2907 11.5787 62.6795 11.5454 64.145C12.243 63.9921 12.8674 63.8343 13.602 63.6784L13.602 63.6763ZM14.6512 54.1487C13.9189 55.3849 13.2233 56.5055 12.4907 57.6261C12.527 57.6648 14.8393 56.4231 16.0873 55.7642C15.5682 55.2256 15.1265 54.6867 14.6512 54.1487ZM10.8871 64.1103C10.9944 62.6834 11.099 59.9829 11.0627 59.983C10.3671 61.1035 9.70784 62.2627 8.93924 63.4991C9.63421 63.7284 10.2237 63.9198 10.8837 64.1104L10.8871 64.1103Z" fill="#DBDEE1"/>
<path d="M108.491 43.2222C109.043 43.2206 109.557 43.181 110.071 43.2175C110.365 43.2554 111.099 44.1393 111.323 44.3309C110.844 44.2555 109.779 44.0664 109.705 44.0279C109.337 43.798 108.969 43.5293 108.491 43.2222Z" fill="#DBDEE1"/>
<path d="M72.6686 41.7873C72.0078 41.8661 71.4572 41.9496 70.9059 42.0239C69.6582 42.1921 68.4083 42.3014 67.1592 42.4589C67.0121 42.4593 66.7918 42.46 66.7183 42.3445C66.055 41.537 65.3923 40.6906 64.6556 39.7647C65.4271 39.6467 68.7727 39.1576 69.7241 38.978C69.8925 38.9302 70.0708 38.9375 70.235 38.999C70.3993 39.0605 70.5417 39.1733 70.6431 39.3222C71.2276 40.0985 71.932 40.9023 72.6686 41.7873Z" fill="url(#paint3_linear_61_869)"/>
<path d="M89.1592 39.4621C89.177 39.4763 89.1898 39.4963 89.1957 39.5188C89.2016 39.5414 89.2004 39.5655 89.1922 39.5872C89.1839 39.609 89.1692 39.6274 89.1501 39.6396C89.131 39.6518 89.1086 39.6571 89.0864 39.6548C88.5878 39.7181 86.5221 40.0619 84.3849 40.2478C83.7808 40.2497 84.2085 40.3015 81.8083 37.6695C81.7906 37.6553 81.7778 37.6353 81.7719 37.6127C81.7659 37.5902 81.7672 37.5661 81.7754 37.5443C81.7836 37.5225 81.7984 37.5042 81.8175 37.492C81.8366 37.4798 81.8589 37.4745 81.8811 37.4768C86.5325 36.7891 86.5322 36.6418 86.6926 36.8066C87.5395 37.6912 88.3398 38.5867 89.1592 39.4621Z" fill="url(#paint4_linear_61_869)"/>
<path d="M76.0415 38.1894C77.7372 37.9617 79.9256 37.7411 80.7793 37.597C80.9478 37.5626 81.1221 37.5764 81.2837 37.637C81.4454 37.6975 81.5885 37.8026 81.6982 37.9412C82.3396 38.7366 83.0241 39.5176 83.7244 40.3653C82.6779 40.525 82.8317 40.4728 78.7657 40.9972C78.6117 41.0005 78.4596 40.9611 78.3248 40.8828C77.5514 40.0749 76.8161 39.2287 76.0419 38.3827L76.0415 38.1894Z" fill="url(#paint5_linear_61_869)"/>
<path d="M77.9946 41.1153C76.7456 41.2735 75.5319 41.3526 74.3214 41.6292C73.9001 41.7507 73.452 41.7179 73.0511 41.5363C72.6501 41.3547 72.3201 41.0351 72.1154 40.6301C71.712 40.0687 71.2815 39.5294 70.8258 39.0141C70.812 38.9949 70.8028 38.9726 70.7991 38.9489C70.7954 38.9252 70.7972 38.9009 70.8044 38.8781C70.8117 38.8553 70.8241 38.8347 70.8406 38.818C70.8571 38.8014 70.8772 38.7892 70.8992 38.7826C75.3771 38.2663 74.7361 38.3128 75.2334 38.2668C75.4537 38.2661 75.5649 38.4188 75.713 38.5735C76.5284 39.3645 77.2908 40.2138 77.9946 41.1153Z" fill="url(#paint6_linear_61_869)"/>
<path d="M59.5877 40.5921C60.836 40.3952 61.5357 40.2552 63.0399 40.0416C63.9223 39.9161 64.2862 39.5537 64.7299 40.3447C65.4489 41.627 65.8369 41.6754 66.3881 42.5386C64.2552 42.7935 63.273 42.9696 61.9808 43.092C61.4197 43.0937 61.3645 42.851 59.5511 40.746C59.5364 40.737 59.5249 40.7232 59.5183 40.7067C59.5117 40.6903 59.5104 40.672 59.5145 40.6547C59.5186 40.6374 59.528 40.6219 59.5412 40.6106C59.5544 40.5994 59.5707 40.5929 59.5877 40.5921Z" fill="url(#paint7_linear_61_869)"/>
<defs>
<linearGradient id="paint0_linear_61_869" x1="12.0694" y1="50.8787" x2="12.1167" y2="66.6758" gradientUnits="userSpaceOnUse">
<stop stop-color="#DC0000"/>
<stop offset="1" stop-color="#FC6626"/>
</linearGradient>
<linearGradient id="paint1_linear_61_869" x1="105.126" y1="60.0669" x2="105.131" y2="61.513" gradientUnits="userSpaceOnUse">
<stop stop-color="#DC0000"/>
<stop offset="1" stop-color="#FC6626"/>
</linearGradient>
<linearGradient id="paint2_linear_61_869" x1="74.4834" y1="33.6438" x2="74.525" y2="47.5462" gradientUnits="userSpaceOnUse">
<stop stop-color="#DC0000"/>
<stop offset="1" stop-color="#FC6626"/>
</linearGradient>
<linearGradient id="paint3_linear_61_869" x1="68.6584" y1="38.9507" x2="68.6689" y2="42.4544" gradientUnits="userSpaceOnUse">
<stop stop-color="#DC0000"/>
<stop offset="1" stop-color="#FC6626"/>
</linearGradient>
<linearGradient id="paint4_linear_61_869" x1="85.4801" y1="36.7482" x2="85.4905" y2="40.2446" gradientUnits="userSpaceOnUse">
<stop stop-color="#DC0000"/>
<stop offset="1" stop-color="#FC6626"/>
</linearGradient>
<linearGradient id="paint5_linear_61_869" x1="79.8795" y1="37.5818" x2="79.8897" y2="40.9939" gradientUnits="userSpaceOnUse">
<stop stop-color="#DC0000"/>
<stop offset="1" stop-color="#FC6626"/>
</linearGradient>
<linearGradient id="paint6_linear_61_869" x1="74.3923" y1="38.2693" x2="74.4026" y2="41.6995" gradientUnits="userSpaceOnUse">
<stop stop-color="#DC0000"/>
<stop offset="1" stop-color="#FC6626"/>
</linearGradient>
<linearGradient id="paint7_linear_61_869" x1="62.9466" y1="39.8525" x2="62.9562" y2="43.0891" gradientUnits="userSpaceOnUse">
<stop stop-color="#DC0000"/>
<stop offset="1" stop-color="#FC6626"/>
</linearGradient>
</defs>
</svg>
