<svg width="500" height="500" viewBox="0 0 189 138" fill="none" xmlns="http://www.w3.org/2000/svg">
    <g clip-path="url(#clip0_233_596)">
        <path d="M110.092 24.1885C113.634 24.1885 116.506 21.3266 116.506 17.7963C116.506 14.266 113.634 11.4041 110.092 11.4041C106.55 11.4041 103.679 14.266 103.679 17.7963C103.679 21.3266 106.55 24.1885 110.092 24.1885Z" fill="#F2F2F2"/>
        <path d="M159.845 119.057C169.379 111.82 173.932 99.6588 171.081 88.0581C171.011 87.7699 170.936 87.4823 170.857 87.1954C168.967 80.3093 164.292 73.7647 157.478 71.5645C151.756 69.717 145.511 71.1377 139.542 70.403C127.824 68.9608 118.739 59.5116 112.347 49.6182C105.955 39.7248 101.043 28.6506 92.5491 20.4771C78.5486 7.00468 55.7104 4.10405 38.3519 12.8736C20.9933 21.6432 9.93614 41.0993 10.4077 60.4897C10.8793 79.8801 22.4292 98.4187 39.2026 108.255C45.3644 111.868 52.4912 114.428 59.5837 113.532C65.7379 112.755 71.3297 109.459 77.4548 108.481C87.085 106.942 96.6539 111.282 104.983 116.339C113.313 121.396 121.358 127.39 130.823 129.734C140.014 132.01 151.4 125.467 159.845 119.057Z" fill="#F2F2F2"/>
        <path d="M146.148 13.2809C145.939 13.142 145.728 13.0103 145.519 12.8763C139.478 9.02567 133.003 5.89748 126.228 3.55633L124.657 25.1552H114.698V0.403395C114.071 0.274118 113.439 0.152023 112.808 0.0371094V25.1552H100.973C94.4573 25.1552 88.2088 22.5757 83.6018 17.9841C78.9948 13.3926 76.4066 7.16503 76.4066 0.671554C75.7724 0.808014 75.1431 0.954028 74.5138 1.10964V25.1553H64.8742L63.3777 4.55943C56.4152 7.2207 49.8053 10.7204 43.6951 14.9806C43.5894 15.0525 43.4837 15.1267 43.3804 15.1985C42.8496 15.5696 42.3259 15.9478 41.8047 16.3309V98.7309H70.214L69.712 91.8002L66.9496 53.7471H122.579L119.817 91.8002L119.315 98.7309H147.41V14.114C146.992 13.8315 146.571 13.5538 146.148 13.2809ZM74.5138 47.4628H66.4932L65.0112 27.0417H74.5138V47.4628ZM112.808 47.4628H99.3368V47.0582C99.3368 46.8637 99.2983 46.6711 99.2236 46.4915C99.1488 46.3118 99.0393 46.1486 98.9012 46.0112C98.7631 45.8738 98.5991 45.7648 98.4188 45.6906C98.2384 45.6164 98.0451 45.5784 97.8499 45.5787H91.9937C91.7987 45.5786 91.6056 45.6168 91.4255 45.6912C91.2453 45.7655 91.0817 45.8745 90.9438 46.0119C90.8059 46.1493 90.6966 46.3124 90.622 46.4919C90.5475 46.6715 90.5091 46.8639 90.5092 47.0582V47.4628H76.4066V27.0417H112.808V47.4628ZM114.698 47.4628V27.0417H124.52L123.038 47.4628H114.698Z" fill="#3F3D56"/>
        <path d="M0 104.008C2.08674 106.472 4.34379 108.788 6.75464 110.938L182.245 111.178C184.656 109.027 186.913 106.711 189 104.247L0 104.008Z" fill="#3F3D56"/>
        <path d="M119.006 81.8149V102.333C119.006 102.594 119.11 102.845 119.296 103.03C119.481 103.215 119.733 103.319 119.995 103.319H150.503C150.765 103.319 151.017 103.215 151.202 103.03C151.388 102.845 151.492 102.594 151.492 102.333V81.8149C151.492 81.5536 151.387 81.3033 151.202 81.1186C151.016 80.934 150.765 80.8302 150.503 80.8298H119.995C119.733 80.8302 119.482 80.934 119.296 81.1186C119.111 81.3033 119.006 81.5536 119.006 81.8149Z" fill="#3F3D56"/>
        <path d="M119.722 82.0701V102.079C119.722 102.219 119.778 102.353 119.877 102.452C119.976 102.551 120.11 102.606 120.25 102.607H150.249C150.389 102.606 150.523 102.551 150.622 102.452C150.722 102.353 150.777 102.219 150.778 102.079V82.0701C150.778 81.9302 150.722 81.7961 150.623 81.6971C150.524 81.5981 150.389 81.5423 150.249 81.542H120.25C120.11 81.5423 119.976 81.5981 119.876 81.6971C119.777 81.7961 119.722 81.9302 119.722 82.0701Z" fill="#DC0000"/>
        <path d="M118.368 106.334C118.424 106.404 118.495 106.46 118.576 106.499C118.656 106.537 118.745 106.557 118.835 106.557H151.501C151.59 106.557 151.678 106.537 151.759 106.498C151.84 106.46 151.911 106.404 151.967 106.335C152.023 106.266 152.063 106.185 152.084 106.099C152.105 106.012 152.107 105.922 152.088 105.835L151.581 103.434C151.56 103.336 151.515 103.245 151.45 103.169C151.384 103.093 151.301 103.035 151.207 102.999C151.139 102.973 151.067 102.959 150.994 102.959H119.34C119.267 102.959 119.194 102.973 119.126 102.999C119.033 103.035 118.949 103.093 118.884 103.169C118.818 103.245 118.773 103.336 118.752 103.434L118.245 105.835C118.227 105.922 118.229 106.012 118.25 106.098C118.271 106.185 118.311 106.265 118.368 106.334Z" fill="#2F2E41"/>
        <path d="M149.873 103.993H150.645C150.709 103.993 150.762 103.941 150.762 103.876V103.508C150.762 103.444 150.709 103.391 150.645 103.391H149.873C149.808 103.391 149.756 103.444 149.756 103.508V103.876C149.756 103.941 149.808 103.993 149.873 103.993Z" fill="#3F3D56"/>
        <path d="M147.861 103.993H148.632C148.697 103.993 148.75 103.941 148.75 103.876V103.508C148.75 103.444 148.697 103.391 148.632 103.391H147.861C147.796 103.391 147.744 103.444 147.744 103.508V103.876C147.744 103.941 147.796 103.993 147.861 103.993Z" fill="#3F3D56"/>
        <path d="M145.849 103.993H146.62C146.685 103.993 146.737 103.941 146.737 103.876V103.508C146.737 103.444 146.685 103.391 146.62 103.391H145.849C145.784 103.391 145.731 103.444 145.731 103.508V103.876C145.731 103.941 145.784 103.993 145.849 103.993Z" fill="#3F3D56"/>
        <path d="M143.836 103.993H144.608C144.673 103.993 144.725 103.941 144.725 103.876V103.508C144.725 103.444 144.673 103.391 144.608 103.391H143.836C143.772 103.391 143.719 103.444 143.719 103.508V103.876C143.719 103.941 143.772 103.993 143.836 103.993Z" fill="#3F3D56"/>
        <path d="M141.824 103.993H142.596C142.661 103.993 142.713 103.941 142.713 103.876V103.508C142.713 103.444 142.661 103.391 142.596 103.391H141.824C141.76 103.391 141.707 103.444 141.707 103.508V103.876C141.707 103.941 141.76 103.993 141.824 103.993Z" fill="#3F3D56"/>
        <path d="M139.812 103.993H140.584C140.648 103.993 140.701 103.941 140.701 103.876V103.508C140.701 103.444 140.648 103.391 140.584 103.391H139.812C139.747 103.391 139.695 103.444 139.695 103.508V103.876C139.695 103.941 139.747 103.993 139.812 103.993Z" fill="#3F3D56"/>
        <path d="M137.8 103.993H138.571C138.636 103.993 138.689 103.941 138.689 103.876V103.508C138.689 103.444 138.636 103.391 138.571 103.391H137.8C137.735 103.391 137.683 103.444 137.683 103.508V103.876C137.683 103.941 137.735 103.993 137.8 103.993Z" fill="#3F3D56"/>
        <path d="M135.788 103.993H136.559C136.624 103.993 136.677 103.941 136.677 103.876V103.508C136.677 103.444 136.624 103.391 136.559 103.391H135.788C135.723 103.391 135.67 103.444 135.67 103.508V103.876C135.67 103.941 135.723 103.993 135.788 103.993Z" fill="#3F3D56"/>
        <path d="M133.775 103.993H134.547C134.612 103.993 134.664 103.941 134.664 103.876V103.508C134.664 103.444 134.612 103.391 134.547 103.391H133.775C133.711 103.391 133.658 103.444 133.658 103.508V103.876C133.658 103.941 133.711 103.993 133.775 103.993Z" fill="#3F3D56"/>
        <path d="M131.763 103.993H132.535C132.599 103.993 132.652 103.941 132.652 103.876V103.508C132.652 103.444 132.599 103.391 132.535 103.391H131.763C131.698 103.391 131.646 103.444 131.646 103.508V103.876C131.646 103.941 131.698 103.993 131.763 103.993Z" fill="#3F3D56"/>
        <path d="M129.751 103.993H130.523C130.587 103.993 130.64 103.941 130.64 103.876V103.508C130.64 103.444 130.587 103.391 130.523 103.391H129.751C129.686 103.391 129.634 103.444 129.634 103.508V103.876C129.634 103.941 129.686 103.993 129.751 103.993Z" fill="#3F3D56"/>
        <path d="M127.739 103.993H128.51C128.575 103.993 128.628 103.941 128.628 103.876V103.508C128.628 103.444 128.575 103.391 128.51 103.391H127.739C127.674 103.391 127.621 103.444 127.621 103.508V103.876C127.621 103.941 127.674 103.993 127.739 103.993Z" fill="#3F3D56"/>
        <path d="M125.727 103.993H126.498C126.563 103.993 126.615 103.941 126.615 103.876V103.508C126.615 103.444 126.563 103.391 126.498 103.391H125.727C125.662 103.391 125.609 103.444 125.609 103.508V103.876C125.609 103.941 125.662 103.993 125.727 103.993Z" fill="#3F3D56"/>
        <path d="M123.714 103.993H124.486C124.551 103.993 124.603 103.941 124.603 103.876V103.508C124.603 103.444 124.551 103.391 124.486 103.391H123.714C123.65 103.391 123.597 103.444 123.597 103.508V103.876C123.597 103.941 123.65 103.993 123.714 103.993Z" fill="#3F3D56"/>
        <path d="M121.702 103.993H122.474C122.539 103.993 122.591 103.941 122.591 103.876V103.508C122.591 103.444 122.539 103.391 122.474 103.391H121.702C121.637 103.391 121.585 103.444 121.585 103.508V103.876C121.585 103.941 121.637 103.993 121.702 103.993Z" fill="#3F3D56"/>
        <path d="M119.69 103.993H120.461C120.526 103.993 120.579 103.941 120.579 103.876V103.508C120.579 103.444 120.526 103.391 120.461 103.391H119.69C119.625 103.391 119.573 103.444 119.573 103.508V103.876C119.573 103.941 119.625 103.993 119.69 103.993Z" fill="#3F3D56"/>
        <path d="M149.897 104.996H150.668C150.733 104.996 150.786 104.944 150.786 104.879V104.511C150.786 104.447 150.733 104.394 150.668 104.394H149.897C149.832 104.394 149.78 104.447 149.78 104.511V104.879C149.78 104.944 149.832 104.996 149.897 104.996Z" fill="#3F3D56"/>
        <path d="M147.885 104.996H148.656C148.721 104.996 148.773 104.944 148.773 104.879V104.511C148.773 104.447 148.721 104.394 148.656 104.394H147.885C147.82 104.394 147.767 104.447 147.767 104.511V104.879C147.767 104.944 147.82 104.996 147.885 104.996Z" fill="#3F3D56"/>
        <path d="M145.872 104.996H146.644C146.709 104.996 146.761 104.944 146.761 104.879V104.511C146.761 104.447 146.709 104.394 146.644 104.394H145.872C145.808 104.394 145.755 104.447 145.755 104.511V104.879C145.755 104.944 145.808 104.996 145.872 104.996Z" fill="#3F3D56"/>
        <path d="M143.86 104.996H144.632C144.697 104.996 144.749 104.944 144.749 104.879V104.511C144.749 104.447 144.697 104.394 144.632 104.394H143.86C143.795 104.394 143.743 104.447 143.743 104.511V104.879C143.743 104.944 143.795 104.996 143.86 104.996Z" fill="#3F3D56"/>
        <path d="M141.848 104.996H142.62C142.684 104.996 142.737 104.944 142.737 104.879V104.511C142.737 104.447 142.684 104.394 142.62 104.394H141.848C141.783 104.394 141.731 104.447 141.731 104.511V104.879C141.731 104.944 141.783 104.996 141.848 104.996Z" fill="#3F3D56"/>
        <path d="M139.836 104.996H140.607C140.672 104.996 140.725 104.944 140.725 104.879V104.511C140.725 104.447 140.672 104.394 140.607 104.394H139.836C139.771 104.394 139.719 104.447 139.719 104.511V104.879C139.719 104.944 139.771 104.996 139.836 104.996Z" fill="#3F3D56"/>
        <path d="M137.824 104.996H138.595C138.66 104.996 138.713 104.944 138.713 104.879V104.511C138.713 104.447 138.66 104.394 138.595 104.394H137.824C137.759 104.394 137.706 104.447 137.706 104.511V104.879C137.706 104.944 137.759 104.996 137.824 104.996Z" fill="#3F3D56"/>
        <path d="M135.811 104.996H136.583C136.648 104.996 136.7 104.944 136.7 104.879V104.511C136.7 104.447 136.648 104.394 136.583 104.394H135.811C135.747 104.394 135.694 104.447 135.694 104.511V104.879C135.694 104.944 135.747 104.996 135.811 104.996Z" fill="#3F3D56"/>
        <path d="M133.799 104.996H134.571C134.635 104.996 134.688 104.944 134.688 104.879V104.511C134.688 104.447 134.635 104.394 134.571 104.394H133.799C133.734 104.394 133.682 104.447 133.682 104.511V104.879C133.682 104.944 133.734 104.996 133.799 104.996Z" fill="#3F3D56"/>
        <path d="M131.787 104.996H132.559C132.623 104.996 132.676 104.944 132.676 104.879V104.511C132.676 104.447 132.623 104.394 132.559 104.394H131.787C131.722 104.394 131.67 104.447 131.67 104.511V104.879C131.67 104.944 131.722 104.996 131.787 104.996Z" fill="#3F3D56"/>
        <path d="M129.775 104.996H130.546C130.611 104.996 130.664 104.944 130.664 104.879V104.511C130.664 104.447 130.611 104.394 130.546 104.394H129.775C129.71 104.394 129.657 104.447 129.657 104.511V104.879C129.657 104.944 129.71 104.996 129.775 104.996Z" fill="#3F3D56"/>
        <path d="M127.763 104.996H128.534C128.599 104.996 128.651 104.944 128.651 104.879V104.511C128.651 104.447 128.599 104.394 128.534 104.394H127.763C127.698 104.394 127.645 104.447 127.645 104.511V104.879C127.645 104.944 127.698 104.996 127.763 104.996Z" fill="#3F3D56"/>
        <path d="M125.75 104.996H126.522C126.587 104.996 126.639 104.944 126.639 104.879V104.511C126.639 104.447 126.587 104.394 126.522 104.394H125.75C125.686 104.394 125.633 104.447 125.633 104.511V104.879C125.633 104.944 125.686 104.996 125.75 104.996Z" fill="#3F3D56"/>
        <path d="M123.738 104.996H124.51C124.574 104.996 124.627 104.944 124.627 104.879V104.511C124.627 104.447 124.574 104.394 124.51 104.394H123.738C123.673 104.394 123.621 104.447 123.621 104.511V104.879C123.621 104.944 123.673 104.996 123.738 104.996Z" fill="#3F3D56"/>
        <path d="M121.726 104.996H122.497C122.562 104.996 122.615 104.944 122.615 104.879V104.511C122.615 104.447 122.562 104.394 122.497 104.394H121.726C121.661 104.394 121.609 104.447 121.609 104.511V104.879C121.609 104.944 121.661 104.996 121.726 104.996Z" fill="#3F3D56"/>
        <path d="M119.714 104.996H120.485C120.55 104.996 120.602 104.944 120.602 104.879V104.511C120.602 104.447 120.55 104.394 120.485 104.394H119.714C119.649 104.394 119.596 104.447 119.596 104.511V104.879C119.596 104.944 119.649 104.996 119.714 104.996Z" fill="#3F3D56"/>
        <path d="M133.195 106.199H141.01C141.075 106.199 141.127 106.147 141.127 106.082V105.714C141.127 105.65 141.075 105.597 141.01 105.597H133.195C133.131 105.597 133.078 105.65 133.078 105.714V106.082C133.078 106.147 133.131 106.199 133.195 106.199Z" fill="#3F3D56"/>
        <path d="M124.916 85.9197H124.233C124.026 85.9197 123.858 86.087 123.858 86.2934C123.858 86.4998 124.026 86.6671 124.233 86.6671H124.916C125.124 86.6671 125.291 86.4998 125.291 86.2934C125.291 86.087 125.124 85.9197 124.916 85.9197Z" fill="white"/>
        <path d="M132.729 85.9197H132.046C131.839 85.9197 131.671 86.087 131.671 86.2934C131.671 86.4998 131.839 86.6671 132.046 86.6671H132.729C132.936 86.6671 133.104 86.4998 133.104 86.2934C133.104 86.087 132.936 85.9197 132.729 85.9197Z" fill="white"/>
        <path d="M134.942 85.9197H134.259C134.052 85.9197 133.884 86.087 133.884 86.2934C133.884 86.4998 134.052 86.6671 134.259 86.6671H134.942C135.149 86.6671 135.317 86.4998 135.317 86.2934C135.317 86.087 135.149 85.9197 134.942 85.9197Z" fill="white"/>
        <path d="M130.604 85.8574H126.358C126.151 85.8574 125.983 86.0247 125.983 86.2311C125.983 86.4376 126.151 86.6049 126.358 86.6049H130.604C130.811 86.6049 130.979 86.4376 130.979 86.2311C130.979 86.0247 130.811 85.8574 130.604 85.8574Z" fill="white"/>
        <path d="M141.02 85.8574H136.775C136.568 85.8574 136.4 86.0247 136.4 86.2311C136.4 86.4376 136.568 86.6049 136.775 86.6049H141.02C141.227 86.6049 141.395 86.4376 141.395 86.2311C141.395 86.0247 141.227 85.8574 141.02 85.8574Z" fill="white"/>
        <path d="M127 87.6067H126.317C126.11 87.6067 125.942 87.774 125.942 87.9804C125.942 88.1868 126.11 88.3541 126.317 88.3541H127C127.207 88.3541 127.375 88.1868 127.375 87.9804C127.375 87.774 127.207 87.6067 127 87.6067Z" fill="white"/>
        <path d="M134.812 87.6067H134.129C133.922 87.6067 133.754 87.774 133.754 87.9804C133.754 88.1868 133.922 88.3541 134.129 88.3541H134.812C135.019 88.3541 135.187 88.1868 135.187 87.9804C135.187 87.774 135.019 87.6067 134.812 87.6067Z" fill="white"/>
        <path d="M137.026 87.6067H136.343C136.135 87.6067 135.968 87.774 135.968 87.9804C135.968 88.1868 136.135 88.3541 136.343 88.3541H137.026C137.233 88.3541 137.401 88.1868 137.401 87.9804C137.401 87.774 137.233 87.6067 137.026 87.6067Z" fill="white"/>
        <path d="M132.687 87.5444H128.442C128.234 87.5444 128.067 87.7118 128.067 87.9182C128.067 88.1246 128.234 88.2919 128.442 88.2919H132.687C132.894 88.2919 133.062 88.1246 133.062 87.9182C133.062 87.7118 132.894 87.5444 132.687 87.5444Z" fill="white"/>
        <path d="M143.103 87.5444H138.858C138.651 87.5444 138.483 87.7118 138.483 87.9182C138.483 88.1246 138.651 88.2919 138.858 88.2919H143.103C143.31 88.2919 143.478 88.1246 143.478 87.9182C143.478 87.7118 143.31 87.5444 143.103 87.5444Z" fill="white"/>
        <path d="M129.083 89.2937H128.4C128.193 89.2937 128.025 89.461 128.025 89.6674C128.025 89.8738 128.193 90.0412 128.4 90.0412H129.083C129.29 90.0412 129.458 89.8738 129.458 89.6674C129.458 89.461 129.29 89.2937 129.083 89.2937Z" fill="white"/>
        <path d="M136.895 89.2937H136.212C136.005 89.2937 135.837 89.461 135.837 89.6674C135.837 89.8738 136.005 90.0412 136.212 90.0412H136.895C137.102 90.0412 137.27 89.8738 137.27 89.6674C137.27 89.461 137.102 89.2937 136.895 89.2937Z" fill="white"/>
        <path d="M139.109 89.2937H138.426C138.219 89.2937 138.051 89.461 138.051 89.6674C138.051 89.8738 138.219 90.0412 138.426 90.0412H139.109C139.316 90.0412 139.484 89.8738 139.484 89.6674C139.484 89.461 139.316 89.2937 139.109 89.2937Z" fill="white"/>
        <path d="M134.77 89.2314H130.525C130.318 89.2314 130.15 89.3988 130.15 89.6052C130.15 89.8116 130.318 89.9789 130.525 89.9789H134.77C134.977 89.9789 135.145 89.8116 135.145 89.6052C135.145 89.3988 134.977 89.2314 134.77 89.2314Z" fill="white"/>
        <path d="M145.187 89.2314H140.941C140.734 89.2314 140.566 89.3988 140.566 89.6052C140.566 89.8116 140.734 89.9789 140.941 89.9789H145.187C145.394 89.9789 145.562 89.8116 145.562 89.6052C145.562 89.3988 145.394 89.2314 145.187 89.2314Z" fill="white"/>
        <path d="M131.166 90.9807H130.483C130.276 90.9807 130.108 91.148 130.108 91.3544C130.108 91.5608 130.276 91.7282 130.483 91.7282H131.166C131.373 91.7282 131.541 91.5608 131.541 91.3544C131.541 91.148 131.373 90.9807 131.166 90.9807Z" fill="white"/>
        <path d="M138.979 90.9807H138.296C138.088 90.9807 137.921 91.148 137.921 91.3544C137.921 91.5608 138.088 91.7282 138.296 91.7282H138.979C139.186 91.7282 139.354 91.5608 139.354 91.3544C139.354 91.148 139.186 90.9807 138.979 90.9807Z" fill="white"/>
        <path d="M141.192 90.9807H140.509C140.302 90.9807 140.134 91.148 140.134 91.3544C140.134 91.5608 140.302 91.7282 140.509 91.7282H141.192C141.399 91.7282 141.567 91.5608 141.567 91.3544C141.567 91.148 141.399 90.9807 141.192 90.9807Z" fill="white"/>
        <path d="M136.854 90.9182H132.608C132.401 90.9182 132.233 91.0855 132.233 91.2919C132.233 91.4983 132.401 91.6657 132.608 91.6657H136.854C137.061 91.6657 137.229 91.4983 137.229 91.2919C137.229 91.0855 137.061 90.9182 136.854 90.9182Z" fill="white"/>
        <path d="M132.729 97.689H132.046C131.839 97.689 131.671 97.8563 131.671 98.0627C131.671 98.2691 131.839 98.4364 132.046 98.4364H132.729C132.936 98.4364 133.104 98.2691 133.104 98.0627C133.104 97.8563 132.936 97.689 132.729 97.689Z" fill="white"/>
        <path d="M134.942 97.689H134.259C134.052 97.689 133.884 97.8563 133.884 98.0627C133.884 98.2691 134.052 98.4364 134.259 98.4364H134.942C135.149 98.4364 135.317 98.2691 135.317 98.0627C135.317 97.8563 135.149 97.689 134.942 97.689Z" fill="white"/>
        <path d="M141.02 97.7512H136.775C136.568 97.7512 136.4 97.9185 136.4 98.125C136.4 98.3314 136.568 98.4987 136.775 98.4987H141.02C141.227 98.4987 141.395 98.3314 141.395 98.125C141.395 97.9185 141.227 97.7512 141.02 97.7512Z" fill="white"/>
        <path d="M124.916 97.689H124.233C124.026 97.689 123.858 97.8563 123.858 98.0627C123.858 98.2691 124.026 98.4364 124.233 98.4364H124.916C125.124 98.4364 125.291 98.2691 125.291 98.0627C125.291 97.8563 125.124 97.689 124.916 97.689Z" fill="white"/>
        <path d="M130.604 97.7512H126.358C126.151 97.7512 125.983 97.9185 125.983 98.125C125.983 98.3314 126.151 98.4987 126.358 98.4987H130.604C130.811 98.4987 130.979 98.3314 130.979 98.125C130.979 97.9185 130.811 97.7512 130.604 97.7512Z" fill="white"/>
        <path d="M127 96.002H126.317C126.11 96.002 125.942 96.1693 125.942 96.3757C125.942 96.5821 126.11 96.7494 126.317 96.7494H127C127.207 96.7494 127.375 96.5821 127.375 96.3757C127.375 96.1693 127.207 96.002 127 96.002Z" fill="white"/>
        <path d="M134.812 96.002H134.129C133.922 96.002 133.754 96.1693 133.754 96.3757C133.754 96.5821 133.922 96.7494 134.129 96.7494H134.812C135.019 96.7494 135.187 96.5821 135.187 96.3757C135.187 96.1693 135.019 96.002 134.812 96.002Z" fill="white"/>
        <path d="M137.026 96.002H136.343C136.135 96.002 135.968 96.1693 135.968 96.3757C135.968 96.5821 136.135 96.7494 136.343 96.7494H137.026C137.233 96.7494 137.401 96.5821 137.401 96.3757C137.401 96.1693 137.233 96.002 137.026 96.002Z" fill="white"/>
        <path d="M132.687 96.0642H128.442C128.234 96.0642 128.067 96.2315 128.067 96.4379C128.067 96.6443 128.234 96.8117 128.442 96.8117H132.687C132.894 96.8117 133.062 96.6443 133.062 96.4379C133.062 96.2315 132.894 96.0642 132.687 96.0642Z" fill="white"/>
        <path d="M129.083 94.3149H128.4C128.193 94.3149 128.025 94.4823 128.025 94.6887C128.025 94.8951 128.193 95.0624 128.4 95.0624H129.083C129.29 95.0624 129.458 94.8951 129.458 94.6887C129.458 94.4823 129.29 94.3149 129.083 94.3149Z" fill="white"/>
        <path d="M136.895 94.3149H136.212C136.005 94.3149 135.837 94.4823 135.837 94.6887C135.837 94.8951 136.005 95.0624 136.212 95.0624H136.895C137.102 95.0624 137.27 94.8951 137.27 94.6887C137.27 94.4823 137.102 94.3149 136.895 94.3149Z" fill="white"/>
        <path d="M139.109 94.3149H138.426C138.219 94.3149 138.051 94.4823 138.051 94.6887C138.051 94.8951 138.219 95.0624 138.426 95.0624H139.109C139.316 95.0624 139.484 94.8951 139.484 94.6887C139.484 94.4823 139.316 94.3149 139.109 94.3149Z" fill="white"/>
        <path d="M134.77 94.3772H130.525C130.318 94.3772 130.15 94.5445 130.15 94.7509C130.15 94.9573 130.318 95.1247 130.525 95.1247H134.77C134.977 95.1247 135.145 94.9573 135.145 94.7509C135.145 94.5445 134.977 94.3772 134.77 94.3772Z" fill="white"/>
        <path d="M131.166 92.6279H130.483C130.276 92.6279 130.108 92.7953 130.108 93.0017C130.108 93.2081 130.276 93.3754 130.483 93.3754H131.166C131.373 93.3754 131.541 93.2081 131.541 93.0017C131.541 92.7953 131.373 92.6279 131.166 92.6279Z" fill="white"/>
        <path d="M138.979 92.6279H138.296C138.088 92.6279 137.921 92.7953 137.921 93.0017C137.921 93.2081 138.088 93.3754 138.296 93.3754H138.979C139.186 93.3754 139.354 93.2081 139.354 93.0017C139.354 92.7953 139.186 92.6279 138.979 92.6279Z" fill="white"/>
        <path d="M141.192 92.6279H140.509C140.302 92.6279 140.134 92.7953 140.134 93.0017C140.134 93.2081 140.302 93.3754 140.509 93.3754H141.192C141.399 93.3754 141.567 93.2081 141.567 93.0017C141.567 92.7953 141.399 92.6279 141.192 92.6279Z" fill="white"/>
        <path d="M136.854 92.6902H132.608C132.401 92.6902 132.233 92.8575 132.233 93.0639C132.233 93.2703 132.401 93.4376 132.608 93.4376H136.854C137.061 93.4376 137.229 93.2703 137.229 93.0639C137.229 92.8575 137.061 92.6902 136.854 92.6902Z" fill="white"/>
        <path d="M121.285 117.46L118.078 112.408L128.143 104.411L132.298 99.8239C132.838 99.2279 133.525 98.7836 134.291 98.5353C135.057 98.2869 135.875 98.2433 136.663 98.4088C137.451 98.5742 138.182 98.943 138.783 99.4782C139.383 100.013 139.832 100.696 140.085 101.459C140.459 102.588 140.379 103.819 139.86 104.89C139.342 105.962 138.426 106.791 137.306 107.202L130.736 109.614L121.285 117.46Z" fill="#FFB6B6"/>
        <path d="M46.0453 80.8308V105.384H63.3042V80.8308C63.3045 80.6542 63.2479 80.4822 63.1429 80.34C63.0378 80.1978 62.8898 80.0929 62.7205 80.0408C62.6407 80.0145 62.5571 80.0016 62.4731 80.0025H46.8788C46.7695 80.0023 46.6612 80.0235 46.5601 80.0651C46.4591 80.1066 46.3672 80.1676 46.2898 80.2445C46.2124 80.3214 46.1509 80.4128 46.109 80.5134C46.067 80.614 46.0454 80.7219 46.0453 80.8308ZM52.7807 89.2674C52.7852 88.7833 52.9813 88.3206 53.3263 87.9799C53.6714 87.6392 54.1374 87.4481 54.6231 87.4481C55.1088 87.4481 55.5748 87.6392 55.9199 87.9799C56.2649 88.3206 56.461 88.7833 56.4655 89.2674V92.1163C56.463 92.6016 56.2678 93.0663 55.9226 93.4086C55.5773 93.751 55.1101 93.9431 54.6231 93.9431C54.1361 93.9431 53.6689 93.751 53.3236 93.4086C52.9784 93.0663 52.7832 92.6016 52.7807 92.1163V89.2674Z" fill="#2F2E41"/>
        <path d="M45.9926 104.599V106.967C45.9929 107.089 46.0418 107.207 46.1286 107.294C46.2154 107.381 46.3331 107.43 46.4562 107.431H62.8935C63.0167 107.43 63.1346 107.381 63.2215 107.294C63.3084 107.207 63.3572 107.089 63.3571 106.967V104.599H45.9926Z" fill="#3F3D56"/>
        <path d="M18.8948 43.8385V88.669C18.8952 89.2403 19.1231 89.7881 19.5285 90.1921C19.9338 90.5961 20.4834 90.8232 21.0566 90.8237H87.7142C88.2874 90.8232 88.837 90.5961 89.2424 90.1921C89.6477 89.7881 89.8756 89.2403 89.8761 88.669V43.8385C89.8747 43.2677 89.6464 42.7207 89.2412 42.3173C88.836 41.9139 88.2869 41.687 87.7142 41.6863H21.0566C20.4839 41.687 19.9348 41.9139 19.5296 42.3173C19.1244 42.7207 18.8961 43.2677 18.8948 43.8385Z" fill="#3F3D56"/>
        <path d="M20.4585 44.3961V88.1158C20.459 88.4211 20.5809 88.7137 20.7975 88.9295C21.014 89.1453 21.3076 89.2668 21.6139 89.2674H87.1593C87.4656 89.2668 87.7592 89.1453 87.9757 88.9295C88.1923 88.7137 88.3142 88.4211 88.3147 88.1158V44.3961C88.3147 44.0905 88.193 43.7974 87.9764 43.581C87.7598 43.3647 87.466 43.2429 87.1593 43.2422H21.6139C21.3073 43.2429 21.0134 43.3647 20.7968 43.581C20.5802 43.7974 20.4585 44.0905 20.4585 44.3961Z" fill="white"/>
        <path d="M32.6225 107.271C32.6892 107.354 32.774 107.421 32.8706 107.467C32.9671 107.513 33.0728 107.537 33.1798 107.536H72.1751C72.2817 107.536 72.387 107.512 72.4832 107.467C72.5795 107.421 72.6643 107.354 72.7314 107.272C72.7986 107.189 72.8465 107.093 72.8716 106.989C72.8967 106.886 72.8983 106.779 72.8765 106.674L72.2711 103.809C72.2461 103.692 72.192 103.583 72.114 103.492C72.036 103.402 71.9364 103.332 71.8244 103.289C71.7432 103.258 71.6569 103.241 71.5697 103.241H33.7827C33.6956 103.241 33.6092 103.258 33.5281 103.289C33.4161 103.332 33.3165 103.402 33.2384 103.492C33.1604 103.583 33.1064 103.692 33.0813 103.809L32.476 106.674C32.4545 106.778 32.4564 106.886 32.4818 106.989C32.5071 107.092 32.5552 107.188 32.6225 107.271Z" fill="#2F2E41"/>
        <path d="M85.0321 49.265H23.7015C23.6378 49.2636 23.5771 49.2373 23.5326 49.1919C23.488 49.1465 23.463 49.0854 23.463 49.0219C23.463 48.9583 23.488 48.8973 23.5326 48.8519C23.5771 48.8065 23.6378 48.7802 23.7015 48.7788H85.0321C85.0959 48.7802 85.1565 48.8065 85.2011 48.8519C85.2457 48.8973 85.2707 48.9583 85.2707 49.0219C85.2707 49.0854 85.2457 49.1465 85.2011 49.1919C85.1565 49.2373 85.0959 49.2636 85.0321 49.265Z" fill="#3F3D56"/>
        <path d="M27.8764 47.5376C28.6658 47.5376 29.3057 46.8856 29.3057 46.0813C29.3057 45.277 28.6658 44.625 27.8764 44.625C27.087 44.625 26.447 45.277 26.447 46.0813C26.447 46.8856 27.087 47.5376 27.8764 47.5376Z" fill="#3F3D56"/>
        <path d="M32.8141 47.5376C33.6035 47.5376 34.2434 46.8856 34.2434 46.0813C34.2434 45.277 33.6035 44.625 32.8141 44.625C32.0247 44.625 31.3848 45.277 31.3848 46.0813C31.3848 46.8856 32.0247 47.5376 32.8141 47.5376Z" fill="#3F3D56"/>
        <path d="M37.7518 47.5376C38.5412 47.5376 39.1812 46.8856 39.1812 46.0813C39.1812 45.277 38.5412 44.625 37.7518 44.625C36.9624 44.625 36.3225 45.277 36.3225 46.0813C36.3225 46.8856 36.9624 47.5376 37.7518 47.5376Z" fill="#3F3D56"/>
        <path d="M82.0588 44.9851H78.5518C78.4825 44.9867 78.4165 45.0153 78.3681 45.0647C78.3196 45.1142 78.2925 45.1805 78.2925 45.2496C78.2925 45.3188 78.3196 45.3851 78.3681 45.4346C78.4165 45.484 78.4825 45.5126 78.5518 45.5142H82.0588C82.1286 45.5132 82.1951 45.4849 82.2441 45.4354C82.2931 45.3859 82.3205 45.3192 82.3205 45.2496C82.3205 45.1801 82.2931 45.1134 82.2441 45.0639C82.1951 45.0144 82.1286 44.9861 82.0588 44.9851Z" fill="#3F3D56"/>
        <path d="M82.0588 45.9788H78.5517C78.4824 45.9803 78.4163 46.0088 78.3678 46.0583C78.3193 46.1077 78.2921 46.1741 78.2921 46.2433C78.2921 46.3125 78.3193 46.3789 78.3678 46.4283C78.4163 46.4778 78.4824 46.5063 78.5517 46.5078H82.0588C82.1286 46.507 82.1953 46.4788 82.2444 46.4292C82.2935 46.3797 82.321 46.3129 82.321 46.2433C82.321 46.1737 82.2935 46.1069 82.2444 46.0574C82.1953 46.0078 82.1286 45.9796 82.0588 45.9788Z" fill="#3F3D56"/>
        <path d="M82.0588 46.9722H78.5518C78.4825 46.9738 78.4165 47.0024 78.3681 47.0518C78.3196 47.1012 78.2925 47.1676 78.2925 47.2367C78.2925 47.3058 78.3196 47.3722 78.3681 47.4216C78.4165 47.4711 78.4825 47.4996 78.5518 47.5012H82.0588C82.1286 47.5003 82.1951 47.472 82.2441 47.4225C82.2931 47.373 82.3205 47.3062 82.3205 47.2367C82.3205 47.1672 82.2931 47.1005 82.2441 47.051C82.1951 47.0015 82.1286 46.9731 82.0588 46.9722Z" fill="#3F3D56"/>
        <path d="M166.607 105.638C166.713 105.945 166.913 106.211 167.18 106.397C167.447 106.583 167.766 106.681 168.092 106.675L174.456 106.511C174.784 106.505 175.101 106.393 175.36 106.192C175.619 105.991 175.806 105.712 175.892 105.397L176.793 95.7996C177.112 95.9439 177.46 96.0151 177.811 96.0081C178.115 96.0005 178.416 95.9331 178.694 95.8099C178.973 95.6866 179.224 95.5099 179.434 95.2898C179.644 95.0697 179.809 94.8105 179.918 94.5271C180.028 94.2436 180.08 93.9415 180.072 93.6378C180.065 93.3342 179.997 93.035 179.874 92.7574C179.75 92.4798 179.573 92.2292 179.352 92.0198C179.131 91.8105 178.871 91.6466 178.587 91.5375C178.302 91.4283 177.999 91.376 177.694 91.3837C177.554 91.3832 177.414 91.3977 177.277 91.4269C177.128 91.2662 176.947 91.1383 176.745 91.0516C176.544 90.9649 176.326 90.9212 176.106 90.9234L166.318 91.1753C166.237 91.1783 166.156 91.1883 166.076 91.2052C165.862 91.2451 165.658 91.3304 165.479 91.4552C165.3 91.5801 165.151 91.7417 165.04 91.9292C164.929 92.1167 164.859 92.3256 164.836 92.542C164.813 92.7585 164.837 92.9773 164.906 93.1838L166.607 105.638ZM176.977 95.148L177.618 92.8611C177.691 92.5969 177.693 92.3182 177.623 92.0532C177.654 92.0531 177.682 92.0384 177.713 92.0383C178.152 92.0293 178.577 92.1942 178.895 92.497C179.212 92.7998 179.396 93.2158 179.407 93.6536C179.417 94.0915 179.252 94.5156 178.95 94.8329C178.647 95.1501 178.23 95.3347 177.79 95.3462C177.506 95.355 177.225 95.2865 176.977 95.148Z" fill="#2F2E41"/>
        <path d="M166.076 91.2053C166.285 92.3937 168.63 93.2291 171.449 93.0839C174.041 92.9649 176.161 92.0576 176.549 90.9823C176.406 90.94 176.256 90.9201 176.106 90.9235L166.318 91.1754C166.237 91.1784 166.156 91.1884 166.076 91.2053Z" fill="#3F3D56"/>
        <path d="M171.966 100.364C171.979 100.361 171.991 100.356 172.002 100.348L173.384 99.4468C173.401 99.4359 173.414 99.4211 173.424 99.4036C173.433 99.3861 173.438 99.3666 173.438 99.3467C173.438 99.3268 173.433 99.3073 173.424 99.2898C173.414 99.2723 173.401 99.2575 173.384 99.2466L171.948 98.3089C171.934 98.3002 171.92 98.2942 171.904 98.2912C171.889 98.2882 171.873 98.2883 171.857 98.2915C171.842 98.2947 171.827 98.3009 171.814 98.3098C171.801 98.3186 171.79 98.3299 171.781 98.3431C171.772 98.3563 171.766 98.371 171.763 98.3865C171.76 98.402 171.761 98.4179 171.764 98.4333C171.767 98.4487 171.773 98.4634 171.782 98.4764C171.791 98.4893 171.803 98.5005 171.816 98.509L173.099 99.3465L171.87 100.148C171.847 100.164 171.829 100.187 171.821 100.214C171.813 100.241 171.815 100.27 171.826 100.296C171.838 100.322 171.858 100.343 171.883 100.356C171.909 100.368 171.938 100.371 171.966 100.364Z" fill="#DC0000"/>
        <path d="M169.783 100.465C169.806 100.459 169.827 100.446 169.843 100.428C169.859 100.411 169.869 100.389 169.872 100.365C169.876 100.341 169.872 100.317 169.861 100.296C169.851 100.274 169.834 100.257 169.813 100.245L168.539 99.517L169.77 98.6055C169.783 98.5962 169.794 98.5844 169.802 98.5709C169.81 98.5574 169.815 98.5425 169.818 98.527C169.82 98.5114 169.819 98.4956 169.815 98.4803C169.811 98.4651 169.805 98.4508 169.795 98.4382C169.786 98.4256 169.774 98.4149 169.761 98.4069C169.747 98.3988 169.732 98.3935 169.716 98.3912C169.701 98.3889 169.685 98.3897 169.67 98.3935C169.654 98.3973 169.64 98.4041 169.627 98.4135L168.249 99.434C168.233 99.4458 168.22 99.4614 168.212 99.4794C168.203 99.4974 168.199 99.5173 168.201 99.5371C168.202 99.5569 168.208 99.5762 168.218 99.5931C168.229 99.6099 168.243 99.624 168.261 99.6338L169.694 100.453C169.721 100.468 169.753 100.472 169.783 100.465Z" fill="#DC0000"/>
        <path d="M171.828 101.154C171.84 101.151 171.851 101.147 171.861 101.141C171.875 101.132 171.886 101.122 171.896 101.109C171.905 101.096 171.912 101.082 171.915 101.067C171.919 101.051 171.92 101.035 171.917 101.02C171.915 101.004 171.91 100.989 171.901 100.976L169.942 97.766C169.926 97.7389 169.899 97.7196 169.868 97.7121C169.837 97.7046 169.804 97.7097 169.777 97.7262C169.75 97.7427 169.731 97.7693 169.723 97.8001C169.715 97.831 169.721 97.8635 169.737 97.8906L171.696 101.101C171.709 101.122 171.729 101.139 171.753 101.149C171.777 101.159 171.803 101.161 171.828 101.154Z" fill="#DC0000"/>
        <path d="M61.6948 62.4797H51.0799C50.6468 62.4797 50.2958 62.8296 50.2958 63.2612V64.2948C50.2958 64.7264 50.6468 65.0762 51.0799 65.0762H61.6948C62.1279 65.0762 62.4789 64.7264 62.4789 64.2948V63.2612C62.4789 62.8296 62.1279 62.4797 61.6948 62.4797Z" fill="#DC0000"/>
        <path d="M67.8822 67.6729H44.8925C44.4594 67.6729 44.1084 68.0227 44.1084 68.4543V69.4879C44.1084 69.9195 44.4594 70.2693 44.8925 70.2693H67.8822C68.3152 70.2693 68.6663 69.9195 68.6663 69.4879V68.4543C68.6663 68.0227 68.3152 67.6729 67.8822 67.6729Z" fill="#E6E6E6"/>
        <path d="M67.8822 72.8657H44.8925C44.4594 72.8657 44.1084 73.2156 44.1084 73.6472V74.6808C44.1084 75.1124 44.4594 75.4622 44.8925 75.4622H67.8822C68.3152 75.4622 68.6663 75.1124 68.6663 74.6808V73.6472C68.6663 73.2156 68.3152 72.8657 67.8822 72.8657Z" fill="#E6E6E6"/>
        <path d="M69.8311 90.255L69.8831 90.4188L69.8859 90.4243L71.4532 95.1736L73.2563 100.647L76.6487 110.932L76.6816 112.529V112.535L76.9337 125.387L76.2349 127.129L77.0213 129.986C77.0213 129.986 76.6596 125.668 74.7196 128.148C73.6208 129.557 72.3356 130.999 71.2806 132.351C72.8179 132.971 74.3798 133.531 75.9664 134.033C76.3089 134.142 76.6542 134.246 76.9994 134.35C77.0734 134.372 77.1474 134.393 77.2214 134.415C82.4807 135.965 87.9178 136.836 93.3996 137.007C93.6845 137.015 93.9641 137.021 94.2353 137.026C94.3312 137.029 94.4244 137.032 94.5176 137.032C94.8245 137.034 95.1286 137.037 95.4355 137.037C96.0548 137.037 96.6714 137.028 97.2852 137.01C101.828 136.882 106.345 136.273 110.759 135.194C110.729 133.378 110.646 131.256 110.529 128.989C110.474 127.877 109.243 126.673 109.169 125.509C109.117 124.636 110.222 123.813 110.164 122.926C109.791 117.461 109.326 119.559 108.98 115.689C108.945 115.309 108.912 114.946 108.882 114.599C108.66 112.114 108.506 110.56 108.506 110.56L109.981 101.299L112.296 86.7593L112.118 86.467L111.918 86.3687L99.7048 80.3441L99.0416 78.6508C98.8484 78.163 98.5132 77.744 98.0791 77.4476C97.645 77.1512 97.1318 76.991 96.6056 76.9876L88.5604 76.9549C88.1428 76.953 87.7309 77.0504 87.3587 77.2389C86.9865 77.4275 86.6648 77.7018 86.4202 78.0391L84.2418 81.0459L69.8311 90.255Z" fill="#3F3D56"/>
        <path d="M78.5037 108.643L76.6815 112.529L75.4375 115.184L73.2974 126.351L72.2259 127.484L71.3079 123.472L61.7002 125.598C61.3851 123.853 61.6158 125.657 61.4213 123.743C61.4761 123.688 61.5336 123.634 61.5912 123.579C61.7446 123.437 61.8734 123.303 61.8707 123.175C61.7611 116.571 62.0899 105.333 64.8356 98.5246C65.2656 97.4129 65.8326 96.3589 66.5235 95.3866C66.5783 95.3129 66.6304 95.2391 66.6825 95.1654C67.9484 93.3984 68.7486 91.6588 69.883 90.4216V90.4189C69.8901 90.4132 69.8965 90.4068 69.9022 90.3998C69.9063 90.3977 69.9101 90.395 69.9132 90.3916L77.7063 86.2732L78.0406 95.6351L78.279 102.364L78.5037 108.643Z" fill="#3F3D56"/>
        <path d="M106.604 109.747L108.881 114.601L109.675 116.291L111.815 127.457L112.882 128.588L113.803 124.577L114.235 124.488L122.032 122.879L124.304 130.072C124.816 129.221 125.018 128.221 124.875 127.239C124.733 126.257 124.254 125.355 123.521 124.684C123.366 124.544 123.236 124.408 123.24 124.279C123.369 116.512 122.893 102.33 118.588 96.4926C117.221 94.6401 116.4 92.7951 115.207 91.5061C115.203 91.5024 115.203 91.4988 115.199 91.4988L112.295 86.759L112.118 86.4681L111.918 86.3687L106.604 109.747Z" fill="#3F3D56"/>
        <path d="M92.8154 74.6731C98.7266 74.6731 103.519 69.8972 103.519 64.0058C103.519 58.1143 98.7266 53.3384 92.8154 53.3384C86.9042 53.3384 82.1122 58.1143 82.1122 64.0058C82.1122 69.8972 86.9042 74.6731 92.8154 74.6731Z" fill="#FFB6B6"/>
        <path d="M107.282 56.5545C107.199 56.4661 107.099 56.3954 106.988 56.3464C106.877 56.2975 106.757 56.2713 106.636 56.2696L106.797 55.8243C106.849 55.684 106.863 55.5324 106.838 55.3849C106.812 55.2373 106.748 55.0993 106.651 54.9848C106.554 54.8703 106.429 54.7835 106.287 54.7333C106.146 54.6831 105.993 54.6713 105.846 54.6991L105.259 54.8116L105.315 54.4214C105.336 54.276 105.319 54.1277 105.265 53.991C105.211 53.8543 105.123 53.7338 105.008 53.6415C104.893 53.5493 104.757 53.4883 104.611 53.4647C104.466 53.4411 104.317 53.4556 104.179 53.5069C104.053 53.5561 103.918 53.5768 103.783 53.5673C103.648 53.5577 103.518 53.5183 103.4 53.4518C103.282 53.3874 103.18 53.2981 103.1 53.1901C103.021 53.0822 102.966 52.9583 102.939 52.827L102.735 51.8454L102.713 51.7927C101.719 50.1409 99.8067 48.9391 97.4671 48.4986C95.3845 48.1035 93.2491 48.3046 91.1905 48.4938C90.3738 48.5704 89.4514 48.6566 88.6827 49.1258C88.0293 49.528 87.4769 50.3324 87.5898 51.144C85.56 50.5239 83.3837 51.7616 82.3052 53.3225C81.0273 55.1803 80.8183 57.5073 80.7847 59.3267C80.6934 63.6312 81.5846 67.1528 83.427 69.7958C83.5615 69.9873 83.5951 70.3871 83.8617 70.5212L83.8065 70.4326C84.1044 70.581 84.407 70.8204 84.2941 71.0766C83.9698 71.814 86.1245 73.4443 87.6426 73.983C90.4122 74.9669 94.0946 74.8831 96.684 74.5288L96.7753 73.9183C97.7097 73.7914 98.3679 73.5496 98.5528 73.1714C98.8795 72.8937 99.1582 72.6447 99.4008 72.4149L99.4032 72.4125C99.408 72.4077 99.4176 72.4005 99.4224 72.3957C100.592 71.2777 100.864 70.6409 100.986 69.6713C101.104 68.7209 100.895 67.7561 100.681 66.8871C105.183 67.5813 98.9083 62.1086 103.102 61.0504C103.15 61.0357 103.199 61.0237 103.249 61.0145C103.371 60.9858 103.494 60.9571 103.612 60.9236C104.179 60.7701 104.722 60.5388 105.226 60.2365C106.398 59.5254 106.785 58.5822 107.39 57.5193C107.477 57.3679 107.514 57.1927 107.495 57.0192C107.475 56.8457 107.401 56.6829 107.282 56.5545Z" fill="#2F2E41"/>
        <path d="M130.671 110.506C130.668 110.925 130.664 111.512 130.644 112.237C130.642 112.338 130.64 112.441 130.637 112.546C130.606 113.88 130.575 114.998 130.524 116.24C130.522 116.326 130.52 116.41 130.515 116.496C130.447 118.229 130.342 120.248 130.159 123.444C129.821 129.347 129.23 124.255 128.636 126.326C128.607 126.429 128.576 126.551 128.547 126.695C128.458 127.216 128.306 127.725 128.096 128.21C127.781 128.397 127.457 128.576 127.137 128.756C126.227 129.261 125.302 129.747 124.37 130.209C123.847 130.468 123.321 130.722 122.792 130.966C122.708 131.004 122.626 131.042 122.545 131.078C119.839 132.326 117.05 133.386 114.197 134.253C113.64 134.42 113.085 134.583 112.523 134.734C111.937 134.897 111.351 135.05 110.758 135.194C106.344 136.273 101.827 136.883 97.2845 137.011C96.6719 137.03 96.0546 137.037 95.4349 137.037C95.1274 137.037 94.8247 137.035 94.5173 137.032C94.4236 137.032 94.3299 137.03 94.2362 137.027C93.9648 137.02 93.6838 137.015 93.4003 137.008C87.9185 136.838 82.4814 135.966 77.2224 134.415L76.999 134.351C76.6531 134.246 76.3096 134.143 75.9661 134.032C74.3807 133.532 72.8185 132.972 71.2796 132.352C70.105 131.88 68.944 131.374 67.7966 130.834C67.7861 130.831 67.7763 130.826 67.7678 130.82C67.5276 130.71 67.285 130.595 67.0448 130.477C67.0135 130.461 66.9799 130.444 66.9463 130.427C66.0503 129.991 65.1639 129.535 64.2872 129.058C63.5497 127.37 62.512 127.047 61.8683 125.562C61.6809 125.121 61.5455 124.66 61.4647 124.188C61.4647 124.183 61.4623 124.179 61.4623 124.171C61.5296 125.062 61.1765 122.591 61.4599 124.162C61.4575 124.133 61.4551 124.102 61.4527 124.066C61.4455 123.98 61.4359 123.875 61.4215 123.743C60.5976 115.725 60.6505 106.556 60.2925 99.0007C60.2685 98.5123 60.2437 98.0447 60.2181 97.5978C60.2109 97.4493 60.2013 97.3033 60.1917 97.1597C60.2085 97.1166 60.2277 97.0711 60.2493 97.028C60.2539 97.0156 60.2595 97.0036 60.2661 96.9921C60.2732 96.9772 60.2812 96.9628 60.2901 96.949C60.2949 96.9418 60.3021 96.9322 60.307 96.9251C60.3105 96.9168 60.3145 96.9089 60.319 96.9011C60.3406 96.8676 60.3646 96.8317 60.391 96.7982C60.403 96.7838 60.4126 96.7718 60.4247 96.7599C60.4329 96.7476 60.4426 96.7364 60.4535 96.7264C60.4608 96.7149 60.4697 96.7044 60.4799 96.6952C60.4895 96.6857 60.4991 96.6737 60.5111 96.6617C60.5163 96.6542 60.5228 96.6477 60.5303 96.6426C60.5493 96.6208 60.5702 96.6008 60.5928 96.5827C60.6785 96.5041 60.77 96.4321 60.8666 96.3673C60.9002 96.3457 60.9363 96.3242 60.9699 96.3002C61.212 96.1559 61.4669 96.0341 61.7314 95.9363C61.8227 95.9028 61.9139 95.8717 62.0124 95.8382C62.0485 95.8286 62.0821 95.8166 62.1181 95.8047C62.171 95.7879 62.2238 95.7712 62.2791 95.7592C62.5529 95.6778 62.8483 95.6084 63.1678 95.5437C63.2062 95.5365 63.2471 95.5294 63.2879 95.5198C63.3456 95.5078 63.4056 95.4982 63.4657 95.4887C63.5473 95.4743 63.6314 95.4599 63.7155 95.4456C64.4289 95.333 65.2384 95.2493 66.132 95.1942C66.2161 95.1894 66.3001 95.1846 66.3842 95.1798C66.4827 95.175 66.5812 95.1703 66.6821 95.1655C66.7661 95.1607 66.8526 95.1583 66.9391 95.1559C67.0231 95.1511 67.1096 95.1487 67.1985 95.1463C67.4411 95.1391 67.6909 95.1319 67.9455 95.1272C68.671 95.1128 69.4348 95.1176 70.2371 95.1343C70.6094 95.1439 70.989 95.1535 71.3781 95.1702C71.4045 95.1702 71.4286 95.1726 71.4526 95.1726C71.7913 95.1846 72.1324 95.199 72.4831 95.2181C72.7281 95.2301 72.9755 95.2421 73.2229 95.2564C73.4559 95.2708 73.6913 95.2852 73.9291 95.3019C74.1141 95.3115 74.299 95.3259 74.4864 95.3378C74.6449 95.3498 74.8035 95.3618 74.962 95.3714L75.1782 95.3857C75.2959 95.3953 75.4136 95.4025 75.5337 95.4144C75.7979 95.436 76.0621 95.4575 76.3312 95.4791C76.5978 95.503 76.8692 95.527 77.1407 95.5509C77.4121 95.5748 77.6859 95.6012 77.9598 95.6275C77.9886 95.6299 78.015 95.6323 78.0415 95.6347C78.2913 95.661 78.5411 95.685 78.7933 95.7113C78.851 95.7161 78.911 95.7209 78.9686 95.7281C79.2091 95.7521 79.4543 95.7803 79.697 95.806C79.7714 95.814 79.8455 95.8218 79.9202 95.8299C80.1103 95.8506 80.2977 95.8684 80.4891 95.8908C80.7414 95.9196 80.9984 95.9459 81.2482 95.9794C81.4428 96.001 81.6373 96.0225 81.8319 96.0465C82.137 96.0824 82.4468 96.1207 82.7567 96.1614C82.8744 96.1757 82.9921 96.1901 83.1098 96.2069C83.9938 96.317 84.8873 96.4391 85.7953 96.566C87.1717 96.7599 88.5697 96.9706 89.9773 97.198C91.3874 97.4254 92.8054 97.6656 94.2314 97.9186C94.5917 97.9832 94.952 98.0479 95.3147 98.1149C95.4781 98.146 95.6414 98.1771 95.8048 98.2082C96.0834 98.2585 96.362 98.3112 96.6407 98.3639C96.9193 98.4165 97.198 98.4692 97.4766 98.5243C97.8081 98.5889 98.142 98.6535 98.4735 98.7182C100.657 99.1491 102.828 99.6088 104.947 100.09C105.295 100.169 105.644 100.25 105.99 100.329C106.681 100.49 107.367 100.653 108.046 100.818C108.233 100.861 108.418 100.906 108.603 100.952C109.064 101.067 109.525 101.182 109.979 101.299L110.059 101.32C110.393 101.402 110.719 101.486 111.046 101.572C111.817 101.773 112.575 101.976 113.321 102.182C113.816 102.319 114.305 102.457 114.788 102.597C115.511 102.805 116.22 103.015 116.909 103.229C117.08 103.281 117.25 103.334 117.419 103.384C117.923 103.54 118.42 103.698 118.903 103.856C119.287 103.98 119.662 104.107 120.032 104.234C120.402 104.361 120.765 104.488 121.12 104.615C121.348 104.696 121.574 104.782 121.8 104.864C122.124 104.983 122.444 105.103 122.756 105.223C122.852 105.259 122.946 105.297 123.039 105.333C123.1 105.359 123.157 105.381 123.215 105.405C123.328 105.45 123.443 105.493 123.554 105.539C123.666 105.582 123.777 105.627 123.887 105.675C123.995 105.718 124.106 105.764 124.212 105.809C124.32 105.852 124.425 105.898 124.531 105.946C124.62 105.982 124.707 106.02 124.791 106.058C124.961 106.132 125.132 106.207 125.297 106.283C125.379 106.322 125.461 106.358 125.542 106.396L125.73 106.482C125.756 106.496 125.783 106.508 125.809 106.52C125.869 106.549 125.932 106.58 125.992 106.609C126.131 106.674 126.268 106.743 126.402 106.808C126.583 106.899 126.758 106.99 126.926 107.078C127.097 107.169 127.262 107.26 127.421 107.349C127.447 107.363 127.471 107.377 127.498 107.392C127.534 107.411 127.57 107.432 127.606 107.452C127.728 107.521 127.846 107.593 127.964 107.662C128.194 107.803 128.413 107.942 128.617 108.081C128.663 108.112 128.706 108.143 128.752 108.172C128.903 108.28 129.047 108.385 129.182 108.493C129.182 108.495 129.182 108.495 129.184 108.495C129.23 108.529 129.273 108.565 129.316 108.598C129.352 108.632 129.391 108.661 129.427 108.694C129.551 108.802 129.667 108.905 129.772 109.01C129.808 109.043 129.842 109.077 129.873 109.113C129.887 109.125 129.9 109.137 129.912 109.151C129.96 109.199 130.003 109.247 130.044 109.295C130.05 109.302 130.056 109.309 130.061 109.317C130.118 109.384 130.171 109.451 130.222 109.518C130.246 109.551 130.272 109.585 130.294 109.618C130.323 109.659 130.351 109.702 130.375 109.743C130.397 109.776 130.416 109.812 130.435 109.846C130.486 109.932 130.53 110.022 130.565 110.116C130.592 110.18 130.614 110.245 130.63 110.312C130.648 110.376 130.662 110.441 130.671 110.506Z" fill="#2F2E41"/>
        <path opacity="0.2" d="M130.671 110.506C130.669 110.925 130.664 111.512 130.645 112.237C130.642 112.338 130.637 112.441 130.635 112.546C130.611 113.563 130.575 114.82 130.524 116.24C130.522 116.326 130.52 116.41 130.515 116.496C130.448 118.229 130.342 120.248 130.159 123.444C129.821 129.347 129.23 124.255 128.636 126.326C126.989 125.316 125.182 124.258 123.251 123.171C122.903 122.974 122.551 122.777 122.196 122.579C118.334 120.432 114.02 118.181 109.516 115.953C109.338 115.864 109.158 115.775 108.98 115.689C98.6633 110.607 87.4024 105.663 78.2794 102.364C76.5186 101.727 74.8372 101.153 73.2566 100.648C69.9273 99.5871 67.0497 98.8449 64.8349 98.5241C62.5289 98.189 60.9364 98.3087 60.2926 99.0005C60.2686 98.5122 60.2438 98.0445 60.2182 97.5976C60.2085 97.4492 60.1989 97.3032 60.1893 97.1595C60.2042 97.1201 60.2234 97.0825 60.2421 97.0446C60.2447 97.039 60.2466 97.0333 60.2494 97.0279C60.254 97.0155 60.2596 97.0034 60.2662 96.992C60.2733 96.9771 60.2813 96.9627 60.2902 96.9489C60.298 96.9319 60.3077 96.9158 60.319 96.901C60.3407 96.8675 60.3647 96.8316 60.3911 96.798C60.4105 96.7729 60.4314 96.7489 60.4536 96.7262C60.4609 96.7147 60.4698 96.7042 60.48 96.6951C60.4896 96.6855 60.4992 96.6735 60.5112 96.6616C60.5163 96.654 60.5229 96.6476 60.5304 96.6424C60.5494 96.6207 60.5703 96.6007 60.5929 96.5826C60.6786 96.504 60.7701 96.432 60.8667 96.3671C60.9003 96.3456 60.9364 96.324 60.97 96.3001C61.2121 96.1557 61.467 96.0339 61.7315 95.9362C61.8227 95.9027 61.914 95.8715 62.0125 95.838C62.0485 95.8285 62.0822 95.8165 62.1182 95.8045C62.171 95.7878 62.2239 95.771 62.2791 95.759C62.553 95.6776 62.8484 95.6082 63.1679 95.5436C63.264 95.5244 63.3649 95.5053 63.4658 95.4885C63.5474 95.4741 63.6315 95.4598 63.7156 95.4454C64.429 95.3329 65.2385 95.2491 66.1321 95.194C66.2161 95.1892 66.3002 95.1845 66.3843 95.1797C66.4828 95.1749 66.5812 95.1701 66.6821 95.1653C66.7662 95.1605 66.8527 95.1581 66.9392 95.1557C67.0232 95.151 67.1097 95.1486 67.1986 95.1462C67.4412 95.139 67.691 95.1318 67.9456 95.127C68.6711 95.115 69.4349 95.1198 70.2372 95.1366C70.6095 95.1438 70.9891 95.1557 71.3782 95.1725C71.4022 95.1725 71.4286 95.1749 71.4527 95.1749C71.7913 95.1845 72.1348 95.2012 72.4831 95.218C72.7282 95.23 72.9756 95.2419 73.223 95.2563C73.456 95.2706 73.6914 95.285 73.9292 95.3018C74.1141 95.3113 74.2991 95.3257 74.4865 95.3377C74.645 95.3497 74.8035 95.3616 74.9621 95.3712C75.1518 95.3856 75.3416 95.3999 75.5338 95.4143C75.798 95.4358 76.0622 95.4574 76.3313 95.4789C76.5979 95.5029 76.8693 95.5268 77.1408 95.5507C77.4122 95.5747 77.686 95.601 77.9599 95.6274C77.9887 95.6297 78.0151 95.6322 78.0415 95.6345C78.2914 95.6609 78.5412 95.6848 78.7934 95.7112C80.1914 95.8524 81.6302 96.0176 83.1099 96.2067C83.9939 96.3192 84.889 96.4397 85.7954 96.5682C87.1718 96.7621 88.5698 96.9728 89.9774 97.1978C91.3875 97.4253 92.8055 97.6655 94.2315 97.9184C94.5918 97.9831 94.9521 98.0477 95.3148 98.1148C95.7568 98.1961 96.1988 98.2791 96.6408 98.3637C96.9194 98.4164 97.1981 98.4691 97.4767 98.5241C97.8082 98.5888 98.1421 98.6534 98.4736 98.7181C100.657 99.149 102.829 99.6086 104.947 100.09C105.295 100.169 105.644 100.25 105.99 100.329C106.681 100.49 107.367 100.652 108.046 100.818C108.233 100.863 108.418 100.909 108.603 100.954C109.067 101.069 109.526 101.184 109.979 101.299V101.301C110.006 101.306 110.032 101.313 110.059 101.32C110.39 101.404 110.719 101.488 111.046 101.574C111.817 101.775 112.575 101.978 113.321 102.182C113.816 102.321 114.306 102.458 114.788 102.596C115.511 102.807 116.22 103.018 116.909 103.228C117.08 103.281 117.251 103.334 117.419 103.384C117.923 103.542 118.418 103.699 118.903 103.856C119.288 103.98 119.662 104.107 120.032 104.234C120.402 104.361 120.765 104.488 121.12 104.615C121.351 104.696 121.577 104.78 121.8 104.861C122.127 104.981 122.444 105.101 122.756 105.223C122.852 105.259 122.946 105.297 123.04 105.333C123.215 105.4 123.385 105.469 123.554 105.539C123.667 105.582 123.777 105.627 123.888 105.675C123.996 105.718 124.106 105.764 124.212 105.809C124.32 105.852 124.426 105.898 124.531 105.946C124.62 105.982 124.707 106.02 124.791 106.058C124.961 106.132 125.132 106.207 125.298 106.283C125.379 106.321 125.461 106.357 125.543 106.396L125.73 106.482C125.756 106.496 125.783 106.508 125.809 106.52C126.013 106.616 126.21 106.712 126.402 106.807C126.583 106.898 126.758 106.989 126.926 107.078C127.126 107.183 127.315 107.286 127.498 107.392C127.534 107.411 127.57 107.432 127.606 107.451C127.728 107.521 127.846 107.593 127.964 107.662C128.194 107.803 128.413 107.942 128.617 108.081C128.819 108.22 129.006 108.356 129.182 108.493C129.182 108.495 129.182 108.495 129.184 108.495C129.268 108.562 129.35 108.629 129.427 108.694C129.552 108.802 129.667 108.905 129.773 109.01C129.808 109.042 129.842 109.077 129.873 109.113C129.887 109.124 129.9 109.137 129.912 109.151C129.962 109.206 130.013 109.261 130.061 109.316C130.118 109.383 130.171 109.45 130.222 109.517C130.246 109.551 130.272 109.585 130.294 109.618C130.323 109.659 130.352 109.702 130.376 109.743C130.397 109.776 130.416 109.812 130.436 109.845C130.487 109.932 130.53 110.022 130.565 110.116C130.592 110.18 130.613 110.245 130.63 110.312C130.648 110.376 130.662 110.441 130.671 110.506Z" fill="black"/>
    </g>
    <defs>
        <clipPath id="clip0_233_596">
            <rect width="189" height="137" fill="white" transform="translate(0 0.0371094)"/>
        </clipPath>
    </defs>
</svg>
