<svg width="64" height="28" viewBox="0 0 64 28" fill="none" xmlns="http://www.w3.org/2000/svg">
<path d="M55.9596 7.30546C54.373 11.0982 52.168 17.6145 52.168 18.6327C52.168 20.3127 54.5881 26.6509 55.5293 27.4145C56.1747 27.9491 56.4974 28 59.5091 28C63.3007 28 63.9999 27.7455 63.9999 26.3964C63.9999 25.9382 62.4133 21.3564 60.5041 16.1636C58.568 10.9964 57.0083 6.72 57.0083 6.69455C57.0083 6.64364 56.847 6.61818 56.6318 6.61818C56.4436 6.61818 56.1209 6.92364 55.9596 7.30546Z" fill="url(#paint0_linear_90_1591)"/>
<path d="M46.8976 0.330906C45.6338 0.687269 44.6119 1.4 44.101 2.29091C43.4825 3.38545 35.2271 25.8109 35.2271 26.3964C35.2271 26.7018 35.5497 27.1855 35.9262 27.4655C36.5447 27.9236 37.0018 28 39.6371 28C43.1867 28 43.6707 27.8982 44.2355 27.0582C44.6926 26.4218 46.6825 21.1527 51.3615 8.34909C53.9699 1.24727 54.0237 0.789089 52.5716 0.254543C51.6304 -0.0763664 48.2691 -0.0254574 46.8976 0.330906Z" fill="url(#paint1_linear_90_1591)"/>
<path d="M10.1378 1.01818C9.3042 1.73091 8.73949 2.46909 8.38991 3.38545C6.26554 8.75636 0 26.0145 0 26.4218C0 26.7018 0.322689 27.1855 0.699159 27.4655C1.34454 27.9491 1.77479 28 4.67899 28C7.15294 28 8.09411 27.8982 8.52436 27.6182C9.14285 27.2109 9.68067 25.9382 12.5311 18.2764C13.5529 15.5273 14.4672 13.3891 14.5479 13.5673C14.6555 13.7455 15.3008 15.4255 15.9731 17.3091C16.6723 19.1927 17.3983 21.0764 17.5865 21.5091C17.8017 21.9164 18.2857 23.24 18.6891 24.4364C19.1731 25.7855 19.7378 26.8545 20.1949 27.2873C20.921 28 20.9748 28 24.2823 28C27.563 28 27.6437 27.9745 28.7193 27.2364C29.3378 26.8291 30.0101 26.2182 30.2252 25.9127C30.7092 25.2 39.2605 2.11273 39.2605 1.52727C39.2605 1.29818 38.9916 0.865454 38.642 0.559999C38.0773 0.050909 37.7277 0 34.6353 0C31.6773 0 31.1933 0.050909 30.6017 0.50909C30.0638 0.890909 29.3647 2.52 27.4286 7.76364C26.0571 11.48 24.847 14.4327 24.7395 14.3309C24.605 14.2291 23.9597 12.5745 23.2874 10.6909C22.5882 8.80727 21.8622 6.89818 21.6739 6.49091C21.4588 6.05818 20.9748 4.76 20.5714 3.56364C20.0874 2.21455 19.5227 1.14545 19.0655 0.712727C18.3395 0 18.2857 0 14.8437 0H11.3748L10.1378 1.01818Z" fill="url(#paint2_linear_90_1591)"/>
<defs>
<linearGradient id="paint0_linear_90_1591" x1="58.0839" y1="28" x2="58.0839" y2="6.61818" gradientUnits="userSpaceOnUse">
<stop stop-color="#9906AA"/>
<stop offset="1" stop-color="#DC0000"/>
</linearGradient>
<linearGradient id="paint1_linear_90_1591" x1="44.3768" y1="28" x2="44.3768" y2="0.032795" gradientUnits="userSpaceOnUse">
<stop stop-color="#9906AA"/>
<stop offset="1" stop-color="#DC0000"/>
</linearGradient>
<linearGradient id="paint2_linear_90_1591" x1="19.6302" y1="28" x2="19.6302" y2="0" gradientUnits="userSpaceOnUse">
<stop stop-color="#9906AA"/>
<stop offset="1" stop-color="#DC0000"/>
</linearGradient>
</defs>
</svg>
