<svg xmlns="http://www.w3.org/2000/svg" width="33" height="24" viewBox="0 0 33 24" fill="none">
    <path d="M25.3028 2.15002L16.5941 8.74631L7.68628 2.15002V2.1518L7.69704 2.16073V11.3973L16.4937 18.1361L25.3028 11.6575V2.15002Z" fill="#B5BAC1"/>
    <path d="M27.5888 0.545477L25.3018 2.14996V11.6574L32.4983 6.29494V3.06452C32.4983 3.06452 31.6248 -1.54928 27.5888 0.545477Z" fill="#DBDEE1"/>
    <path d="M25.3018 11.6575V23.9889H30.8175C30.8175 23.9889 32.3872 23.832 32.5 22.0956V6.29498L25.3018 11.6575Z" fill="#80848E"/>
    <path d="M7.69745 23.9997V11.3973L7.68628 11.3884L7.69745 23.9997Z" fill="#80848E"/>
    <path d="M7.68582 2.15153L5.41133 0.555951C1.37535 -1.5388 0.5 3.07322 0.5 3.07322V6.30354L7.68582 11.3881V2.15153Z" fill="#DBDEE1"/>
    <path d="M7.68628 2.1521V11.3887L7.69745 11.3976V2.16102L7.68628 2.1521Z" fill="#80848E"/>
    <path d="M0.5 6.30597V22.1066C0.611217 23.8449 2.18255 24 2.18255 24H7.69837L7.68582 11.3887L0.5 6.30597Z" fill="#80848E"/>
</svg>