<svg width="32" height="32" viewBox="0 0 16 16" fill="none" xmlns="http://www.w3.org/2000/svg">
    <path d="M7.92088 2.96468C7.18156 3.48465 6.34365 4.074 5.89468 5.04903C5.11487 6.75013 7.49038 8.60567 7.59191 8.68383C7.6155 8.70198 7.64375 8.71105 7.67191 8.71105C7.70181 8.71105 7.73175 8.70083 7.75606 8.68045C7.80322 8.64101 7.8166 8.57401 7.78828 8.51945C7.77969 8.50289 6.927 6.84663 6.95869 5.65844C6.96991 5.24459 7.54906 4.77512 8.16219 4.27809C8.72376 3.82284 9.36032 3.30687 9.73276 2.70327C10.5504 1.37464 9.64163 0.0681989 9.63235 0.0551364C9.59626 0.0044487 9.52963 -0.0138951 9.47267 0.0110737C9.41576 0.0361988 9.38423 0.0977303 9.39723 0.158574C9.39907 0.167231 9.57579 1.03117 9.08404 1.92127C8.88148 2.28908 8.43635 2.60215 7.92088 2.96468Z" fill="#DB380E"/>
    <path d="M11.0357 3.55061C11.0879 3.51133 11.1032 3.43968 11.0716 3.38249C11.04 3.3253 10.9713 3.30008 10.9102 3.32327C10.7846 3.37102 7.83472 4.50812 7.83472 5.88203C7.83472 6.82913 8.23928 7.32944 8.53469 7.69482C8.65056 7.83813 8.7506 7.96188 8.78356 8.06754C8.87638 8.37201 8.6565 8.92232 8.56403 9.1087C8.53738 9.16226 8.55044 9.2272 8.59578 9.26632C8.62028 9.28748 8.65088 9.29823 8.6815 9.29823C8.70756 9.29823 8.73375 9.29048 8.75638 9.27473C8.8071 9.23948 9.99598 8.39891 9.78276 7.38619C9.70332 7.00125 9.51416 6.72 9.34725 6.47181C9.08869 6.08728 8.90194 5.80953 9.18525 5.29653C9.51719 4.69815 11.0205 3.56199 11.0357 3.55061Z" fill="#DB380E"/>
    <path d="M3.35667 9.31994C3.30611 9.47134 3.32999 9.62153 3.42564 9.75441C3.74543 10.1984 4.87815 10.4428 6.61528 10.4428C6.61537 10.4428 6.61544 10.4428 6.6155 10.4428C6.85088 10.4428 7.09938 10.4382 7.35391 10.4291C10.1313 10.3297 11.1614 9.46441 11.2039 9.42763C11.2502 9.38753 11.2626 9.32078 11.2338 9.26678C11.205 9.21281 11.1429 9.18569 11.0835 9.20203C10.1054 9.46909 8.27891 9.56391 7.01203 9.56391C5.59443 9.56391 4.87249 9.46178 4.69574 9.38638C4.78643 9.26184 5.34581 9.03947 6.03897 8.90312C6.10522 8.89012 6.15075 8.82894 6.14419 8.76175C6.13762 8.69456 6.08118 8.64331 6.01365 8.64331C5.60734 8.64331 3.56968 8.67593 3.35667 9.31994Z" fill="#73A1FB"/>
    <path d="M12.6504 8.42871C12.0775 8.42871 11.5343 8.71584 11.5114 8.72799C11.4585 8.75637 11.4316 8.81712 11.4461 8.87549C11.4607 8.93378 11.5131 8.97474 11.5732 8.97481C11.5854 8.97481 12.7952 8.98471 12.9047 9.67593C13.0018 10.2722 11.7601 11.2384 11.2734 11.5604C11.2208 11.5952 11.2004 11.6624 11.2248 11.7205C11.2456 11.77 11.2938 11.8009 11.3457 11.8009C11.3548 11.8009 11.364 11.8 11.3731 11.7981C11.4886 11.7733 14.1983 11.1762 13.9118 9.59856C13.737 8.63168 13.1293 8.42871 12.6504 8.42871Z" fill="#73A1FB"/>
    <path d="M10.7921 11.3674C10.8015 11.3169 10.7805 11.2655 10.7384 11.2359L10.0887 10.7808C10.057 10.7586 10.017 10.7517 9.97977 10.7615C9.97298 10.7632 9.29355 10.9419 8.3071 11.0514C7.9156 11.0953 7.4771 11.1185 7.03891 11.1185C6.05272 11.1185 5.4079 11.0026 5.314 10.9176C5.30156 10.8937 5.3055 10.8829 5.30772 10.8769C5.32478 10.8294 5.41622 10.7731 5.47515 10.7507C5.54025 10.7266 5.57534 10.656 5.55509 10.5896C5.5349 10.5231 5.46644 10.484 5.39887 10.5002C4.74712 10.6575 4.42843 10.8775 4.45162 11.1539C4.49281 11.6441 5.62819 11.8957 6.58803 11.9622C6.72607 11.9717 6.87535 11.9764 7.03163 11.9764C7.03172 11.9764 7.03179 11.9764 7.03188 11.9764C8.62795 11.9764 10.6741 11.4757 10.6945 11.4706C10.7445 11.4584 10.7826 11.418 10.7921 11.3674Z" fill="#73A1FB"/>
    <path d="M5.89366 12.4194C5.94288 12.3874 5.96469 12.3266 5.94722 12.2705C5.92981 12.2145 5.87741 12.1777 5.81853 12.1785C5.73119 12.1808 4.96387 12.2154 4.91015 12.7039C4.8939 12.8499 4.93571 12.9834 5.0345 13.1004C5.31 13.4269 6.05369 13.621 7.30766 13.6936C7.45601 13.7025 7.60669 13.707 7.7556 13.707C9.34983 13.707 10.4235 13.2079 10.4685 13.1866C10.5121 13.166 10.5408 13.1231 10.5434 13.075C10.546 13.0269 10.5219 12.9812 10.4808 12.9561L9.6597 12.4548C9.6312 12.4374 9.59711 12.4317 9.56461 12.4384C9.55942 12.4394 9.03807 12.5476 8.25129 12.6544C8.10241 12.6746 7.91598 12.6849 7.69723 12.6849C6.91128 12.6849 6.03709 12.5565 5.86944 12.4724C5.867 12.4567 5.87009 12.4368 5.89366 12.4194Z" fill="#73A1FB"/>
    <path d="M7.01272 15.2141C10.6644 15.211 12.6243 14.5616 13.0019 14.153C13.1356 14.0084 13.15 13.8715 13.1386 13.7821C13.1106 13.5621 12.9102 13.4274 12.8875 13.4128C12.8326 13.3776 12.7591 13.3868 12.7163 13.4361C12.6737 13.4854 12.6727 13.5575 12.7155 13.6068C12.7385 13.6364 12.7518 13.686 12.6845 13.7534C12.5336 13.8944 11.0112 14.3223 8.47647 14.4508C8.12925 14.4689 7.76507 14.478 7.3941 14.4781C5.12462 14.4781 3.46371 14.1672 3.24567 13.9861C3.32971 13.8654 3.91721 13.6724 4.54199 13.5633C4.6124 13.551 4.65996 13.4847 4.64905 13.4141C4.63815 13.3435 4.57305 13.2949 4.5019 13.3041C4.48427 13.3065 4.42446 13.3101 4.35521 13.3143C3.32433 13.3773 2.13304 13.5175 2.07089 14.0487C2.05201 14.2105 2.10011 14.3575 2.21389 14.4854C2.4923 14.7982 3.29252 15.2141 7.01259 15.2141C7.01266 15.2141 7.01266 15.2141 7.01272 15.2141Z" fill="#73A1FB"/>
    <path d="M13.7191 14.268C13.6675 14.2441 13.6065 14.2562 13.568 14.2978C13.5627 14.3035 13.0136 14.8776 11.3629 15.2148C10.7309 15.3414 9.54464 15.4056 7.83704 15.4056C6.12625 15.4056 4.49834 15.3383 4.48212 15.3376C4.41412 15.3343 4.35596 15.3837 4.34671 15.4507C4.33743 15.5175 4.38056 15.5806 4.44621 15.5962C4.46315 15.6002 6.16919 15.9999 8.50182 15.9999C9.62061 15.9999 10.7093 15.9091 11.7377 15.7298C13.6553 15.3936 13.7895 14.4428 13.7943 14.4025C13.801 14.3461 13.7707 14.2919 13.7191 14.268Z" fill="#73A1FB"/>
</svg>
