<svg xmlns="http://www.w3.org/2000/svg" width="32" height="32" viewBox="0 0 33 32" fill="none">
    <path d="M24.95 24.45H21.394V18.88C21.394 17.552 21.37 15.842 19.544 15.842C17.692 15.842 17.408 17.29 17.408 18.782V24.45H13.852V12.996H17.266V14.562H17.314C18.01 13.374 19.306 12.662 20.682 12.712C24.286 12.712 24.952 15.082 24.952 18.168L24.95 24.448V24.45ZM9.84 11.43C9.29375 11.4274 8.77059 11.2094 8.38414 10.8233C7.99769 10.4372 7.77915 9.91428 7.776 9.36803C7.776 8.23603 8.708 7.30403 9.84 7.30403C10.972 7.30403 11.902 8.23603 11.904 9.36803C11.904 10.5 10.972 11.43 9.84 11.43ZM11.618 24.45H8.058V12.996H11.618V24.45ZM26.72 4.00003H6.27C5.8063 3.99734 5.36027 4.17775 5.02885 4.50206C4.69742 4.82638 4.50737 5.26838 4.5 5.73203V26.268C4.50737 26.7317 4.69742 27.1737 5.02885 27.498C5.36027 27.8223 5.8063 28.0027 6.27 28H26.722C27.1868 28.0038 27.6342 27.824 27.9672 27.4997C28.3001 27.1753 28.4916 26.7327 28.5 26.268V5.73003C28.4916 5.26568 28.3 4.82349 27.9669 4.49981C27.6339 4.17613 27.1864 3.9972 26.722 4.00203L26.72 4.00003Z" fill="#DBDEE1"/>
</svg>