<svg width="32" height="32" viewBox="0 0 16 16" fill="none" xmlns="http://www.w3.org/2000/svg">
    <path d="M12.225 12.225H10.447V9.44001C10.447 8.77601 10.435 7.92101 9.522 7.92101C8.596 7.92101 8.454 8.64501 8.454 9.39101V12.225H6.676V6.49801H8.383V7.28101H8.407C8.755 6.68702 9.403 6.33101 10.091 6.35601C11.893 6.35601 12.226 7.54101 12.226 9.08401L12.225 12.224V12.225ZM4.67 5.71501C4.39687 5.7137 4.13529 5.60469 3.94207 5.41165C3.74884 5.21861 3.63958 4.95714 3.638 4.68401C3.638 4.11801 4.104 3.65201 4.67 3.65201C5.236 3.65201 5.701 4.11801 5.702 4.68401C5.702 5.25001 5.236 5.71501 4.67 5.71501ZM5.559 12.225H3.779V6.49801H5.559V12.225ZM13.11 2.00001H2.885C2.65315 1.99867 2.43014 2.08887 2.26442 2.25103C2.09871 2.41319 2.00368 2.63419 2 2.86601V13.134C2.00368 13.3658 2.09871 13.5868 2.26442 13.749C2.43014 13.9112 2.65315 14.0014 2.885 14H13.111C13.3434 14.0019 13.5671 13.912 13.7336 13.7498C13.9001 13.5877 13.9958 13.3664 14 13.134V2.86501C13.9958 2.63284 13.9 2.41174 13.7335 2.2499C13.5669 2.08806 13.3432 1.9986 13.111 2.00101L13.11 2.00001Z" fill="#0A66C2"/>
</svg>
