<svg width="32" height="32" viewBox="0 0 17 17" fill="none" xmlns="http://www.w3.org/2000/svg">
    <g clip-path="url(#clip0_80_513)">
        <path d="M3.77826 5.72018H6.796V5.96003H4.05488V7.76525H6.63254V8.00511H4.05488V9.98707H6.82744V10.2269H3.77826V5.72018ZM7.06634 5.72018H7.38698L8.80783 7.70213L10.2601 5.72018L12.2355 3.20264L8.99016 7.91043L10.6625 10.2269H10.3293L8.80783 8.11872L7.2801 10.2269H6.95318L8.63809 7.91043L7.06634 5.72018ZM10.7819 5.96003V5.72018H14.2209V5.96003H12.6366V10.2269H12.36V5.96003H10.7819ZM0.00292969 5.72018H0.348713L5.11687 12.8553L3.14642 10.2269L0.29213 6.06102L0.279556 10.2269H0.00292969V5.72018ZM14.193 9.91468C14.1365 9.91468 14.0941 9.87089 14.0941 9.8143C14.0941 9.75771 14.1365 9.71392 14.193 9.71392C14.2502 9.71392 14.292 9.75771 14.292 9.8143C14.292 9.87089 14.2502 9.91468 14.193 9.91468ZM14.4649 9.65059H14.6129C14.6149 9.73076 14.6734 9.78466 14.7596 9.78466C14.8558 9.78466 14.9103 9.72672 14.9103 9.61826V8.93109H15.061V9.61893C15.061 9.8143 14.9479 9.92681 14.7609 9.92681C14.5853 9.92681 14.4649 9.81767 14.4649 9.65059ZM15.2581 9.64184H15.4075C15.4203 9.73413 15.5104 9.79274 15.6403 9.79274C15.7614 9.79274 15.8502 9.73009 15.8502 9.64386C15.8502 9.56975 15.7937 9.52529 15.6652 9.49497L15.54 9.46465C15.3644 9.42356 15.2844 9.33867 15.2844 9.19585C15.2844 9.02271 15.4257 8.90751 15.6376 8.90751C15.8347 8.90751 15.9787 9.02271 15.9875 9.18642H15.8408C15.8267 9.09682 15.7486 9.0409 15.6356 9.0409C15.5165 9.0409 15.4371 9.09816 15.4371 9.18574C15.4371 9.25513 15.4882 9.29488 15.6147 9.32452L15.7217 9.3508C15.9208 9.39728 16.0029 9.47813 16.0029 9.62432C16.0029 9.81026 15.8589 9.92681 15.6288 9.92681C15.4135 9.92681 15.2689 9.81565 15.2581 9.64184Z" fill="#80848E"/>
    </g>
    <defs>
        <clipPath id="clip0_80_513">
            <rect width="16" height="16" fill="white" transform="translate(0.00292969 0.0307617)"/>
        </clipPath>
    </defs>
</svg>
