<svg width="32" height="32" viewBox="0 0 16 17" fill="none" xmlns="http://www.w3.org/2000/svg">
    <path d="M7.90975 12.9067C7.85558 12.9067 7.80501 12.8923 7.75806 12.867L7.2777 12.5817C7.20546 12.5419 7.24158 12.5275 7.26325 12.5203C7.36077 12.4878 7.37883 12.4805 7.47996 12.4227C7.49079 12.4155 7.50524 12.4191 7.51607 12.4264L7.88447 12.6467C7.89892 12.6539 7.91698 12.6539 7.92781 12.6467L9.3689 11.8124C9.38334 11.8051 9.39057 11.7907 9.39057 11.7726V10.1076C9.39057 10.0896 9.38334 10.0751 9.3689 10.0679L7.92781 9.23719C7.91336 9.22997 7.89531 9.22997 7.88447 9.23719L6.44339 10.0679C6.42894 10.0751 6.42172 10.0932 6.42172 10.1076V11.7726C6.42172 11.7871 6.42894 11.8051 6.44339 11.8124L6.83707 12.0399C7.05016 12.1483 7.18379 12.0218 7.18379 11.8954V10.2521C7.18379 10.2304 7.20185 10.2088 7.22713 10.2088H7.41133C7.433 10.2088 7.45467 10.2268 7.45467 10.2521V11.8954C7.45467 12.1808 7.29937 12.3469 7.02849 12.3469C6.94542 12.3469 6.88041 12.3469 6.69621 12.2566L6.31698 12.0399C6.22307 11.9857 6.16528 11.8846 6.16528 11.7762V10.1112C6.16528 10.0029 6.22307 9.90175 6.31698 9.84758L7.75806 9.01327C7.84835 8.9627 7.97115 8.9627 8.06145 9.01327L9.50253 9.84758C9.59643 9.90175 9.65422 10.0029 9.65422 10.1112V11.7762C9.65422 11.8846 9.59643 11.9857 9.50253 12.0399L8.06145 12.8742C8.01449 12.8959 7.96032 12.9067 7.90975 12.9067ZM8.354 11.7618C7.72194 11.7618 7.59192 11.4729 7.59192 11.2273C7.59192 11.2056 7.60998 11.1839 7.63526 11.1839H7.82307C7.84474 11.1839 7.8628 11.1984 7.8628 11.22C7.89169 11.4115 7.97476 11.5054 8.35761 11.5054C8.66099 11.5054 8.79102 11.4367 8.79102 11.2742C8.79102 11.1803 8.7549 11.1117 8.28176 11.0647C7.88808 11.025 7.64248 10.9383 7.64248 10.6241C7.64248 10.3316 7.88808 10.1582 8.29982 10.1582C8.76212 10.1582 8.98966 10.3171 9.01856 10.6638C9.01856 10.6747 9.01494 10.6855 9.00772 10.6963C9.0005 10.7036 8.98966 10.7108 8.97883 10.7108H8.79102C8.77296 10.7108 8.7549 10.6963 8.75129 10.6783C8.70795 10.4796 8.59598 10.4146 8.29982 10.4146C7.96754 10.4146 7.92781 10.5302 7.92781 10.6169C7.92781 10.7216 7.97476 10.7541 8.42262 10.8119C8.86686 10.8697 9.07634 10.9528 9.07634 11.2634C9.07273 11.5812 8.81269 11.7618 8.354 11.7618Z" fill="#539E43"/>
    <path d="M3.43848 6.39481C3.43848 6.3298 3.40236 6.2684 3.34457 6.23589L1.81319 5.35463C1.78791 5.34018 1.75902 5.33296 1.73012 5.32935H1.71568C1.68678 5.32935 1.65789 5.34018 1.63261 5.35463L0.101229 6.23589C0.0434416 6.2684 0.00732422 6.3298 0.00732422 6.39481L0.010936 8.76411C0.010936 8.79661 0.0289946 8.82912 0.0578886 8.84357C0.0867825 8.86163 0.1229 8.86163 0.148182 8.84357L1.05834 8.32348C1.11613 8.29097 1.15225 8.22957 1.15225 8.16456V7.05576C1.15225 6.99075 1.18836 6.92935 1.24615 6.89684L1.63261 6.67291C1.6615 6.65485 1.69401 6.64763 1.72651 6.64763C1.75902 6.64763 1.79152 6.65485 1.81681 6.67291L2.20326 6.89684C2.26105 6.92935 2.29717 6.99075 2.29717 7.05576V8.16456C2.29717 8.22957 2.33328 8.29097 2.39107 8.32348L3.30123 8.84357C3.33012 8.86163 3.36624 8.86163 3.39513 8.84357C3.42403 8.82912 3.44209 8.79661 3.44209 8.76411L3.43848 6.39481Z" fill="#333333"/>
    <path d="M10.7992 3.13339C10.7703 3.11895 10.7341 3.11895 10.7089 3.13339C10.68 3.15145 10.6619 3.18035 10.6619 3.21285V5.56048C10.6619 5.58215 10.6511 5.60382 10.6294 5.61827C10.6077 5.6291 10.5861 5.6291 10.5644 5.61827L10.1816 5.39795C10.1238 5.36545 10.0551 5.36545 9.99735 5.39795L8.46597 6.28283C8.40819 6.31534 8.37207 6.37673 8.37207 6.44175V8.20789C8.37207 8.2729 8.40819 8.3343 8.46597 8.3668L9.99735 9.25168C10.0551 9.28418 10.1238 9.28418 10.1816 9.25168L11.7129 8.3668C11.7707 8.3343 11.8068 8.2729 11.8068 8.20789V3.80518C11.8068 3.73655 11.7707 3.67515 11.7129 3.64265L10.7992 3.13339ZM10.6583 7.6264C10.6583 7.64445 10.6511 7.6589 10.6366 7.66613L10.1129 7.96951C10.0985 7.97673 10.0804 7.97673 10.066 7.96951L9.54227 7.66613C9.52783 7.6589 9.5206 7.64084 9.5206 7.6264V7.01962C9.5206 7.00157 9.52783 6.98712 9.54227 6.97989L10.066 6.67651C10.0804 6.66929 10.0985 6.66929 10.1129 6.67651L10.6366 6.97989C10.6511 6.98712 10.6583 7.00518 10.6583 7.01962V7.6264Z" fill="#333333"/>
    <path d="M15.8955 7.00508C15.9532 6.97257 15.9857 6.91117 15.9857 6.84616V6.41637C15.9857 6.35136 15.9496 6.28996 15.8955 6.25745L14.3749 5.37619C14.3171 5.34368 14.2485 5.34368 14.1907 5.37619L12.6593 6.26106C12.6015 6.29357 12.5654 6.35497 12.5654 6.41998V8.18612C12.5654 8.25113 12.6015 8.31253 12.6593 8.34503L14.1799 9.21185C14.2377 9.24436 14.3063 9.24436 14.3605 9.21185L15.2815 8.69899C15.3104 8.68454 15.3284 8.65203 15.3284 8.61953C15.3284 8.58702 15.3104 8.55452 15.2815 8.54007L13.7429 7.65519C13.714 7.63713 13.6959 7.60824 13.6959 7.57573V7.02314C13.6959 6.99063 13.714 6.95813 13.7429 6.94368L14.2232 6.66919C14.2521 6.65113 14.2882 6.65113 14.3171 6.66919L14.7975 6.94368C14.8264 6.96174 14.8444 6.99063 14.8444 7.02314V7.45655C14.8444 7.48905 14.8625 7.52156 14.8914 7.53601C14.9203 7.55406 14.9564 7.55406 14.9853 7.53601L15.8955 7.00508Z" fill="#333333"/>
    <path d="M14.2593 6.92192C14.2702 6.9147 14.2846 6.9147 14.2955 6.92192L14.588 7.09167C14.5988 7.0989 14.6061 7.10973 14.6061 7.12418V7.46368C14.6061 7.47813 14.5988 7.48896 14.588 7.49619L14.2955 7.66594C14.2846 7.67316 14.2702 7.67316 14.2593 7.66594L13.9668 7.49619C13.956 7.48896 13.9487 7.47813 13.9487 7.46368V7.12418C13.9487 7.10973 13.956 7.0989 13.9668 7.09167L14.2593 6.92192Z" fill="#539E43"/>
    <path d="M5.99914 5.38351C5.94135 5.351 5.87272 5.351 5.81494 5.38351L4.2944 6.26116C4.23661 6.29367 4.2041 6.35507 4.2041 6.42008V8.179C4.2041 8.24401 4.24022 8.30541 4.2944 8.33791L5.81494 9.21556C5.87272 9.24807 5.94135 9.24807 5.99914 9.21556L7.51968 8.33791C7.57747 8.30541 7.60997 8.24401 7.60997 8.179V6.42008C7.60997 6.35507 7.57385 6.29367 7.51968 6.26116L5.99914 5.38351Z" fill="url(#paint0_linear_80_546)"/>
    <defs>
        <linearGradient id="paint0_linear_80_546" x1="236.445" y1="73.2222" x2="69.7727" y2="335.103" gradientUnits="userSpaceOnUse">
            <stop stop-color="#41873F"/>
            <stop offset="0.3288" stop-color="#418B3D"/>
            <stop offset="0.6352" stop-color="#419637"/>
            <stop offset="0.9319" stop-color="#3FA92D"/>
            <stop offset="1" stop-color="#3FAE2A"/>
        </linearGradient>
    </defs>
</svg>
