<svg width="32" height="32" viewBox="0 0 17 17" fill="none" xmlns="http://www.w3.org/2000/svg">
    <g clip-path="url(#clip0_72_251)">
        <path d="M9.34247 8.73205C9.34247 8.01485 8.74282 7.43335 8.00302 7.43335C7.26332 7.43335 6.66357 8.01485 6.66357 8.73205C6.66357 9.44935 7.26332 10.0308 8.00302 10.0308C8.74282 10.0308 9.34247 9.44935 9.34247 8.73205Z" fill="#53C1DE"/>
        <path fill-rule="evenodd" clip-rule="evenodd" d="M12.3531 6.32099C12.636 5.20653 12.9915 3.13988 11.7381 2.43922C10.4906 1.74162 8.86713 3.07836 8.00988 3.88073C7.15513 3.08635 5.48608 1.75533 4.23374 2.45821C2.98668 3.15815 3.37125 5.19054 3.66038 6.31199C2.49708 6.63234 0.50293 7.32234 0.50293 8.73209C0.50293 10.1378 2.49501 10.8885 3.65142 11.2086C3.36122 12.3362 2.99591 14.3396 4.24456 15.038C5.50158 15.7407 7.16543 14.4414 8.03063 13.6302C8.89338 14.4373 10.5012 15.7452 11.749 15.0448C13.0007 14.3423 12.6747 12.3033 12.3856 11.1754C13.5066 10.8546 15.5029 10.1203 15.5029 8.73209C15.5029 7.33589 13.4981 6.64029 12.3531 6.32099ZM12.211 10.5776C12.0212 9.99494 11.7649 9.37529 11.4515 8.73519C11.7507 8.11019 11.997 7.49854 12.1815 6.91959C13.0209 7.15554 14.8622 7.69479 14.8622 8.73209C14.8622 9.77914 13.0952 10.3235 12.211 10.5776ZM11.4279 14.5071C10.4969 15.0296 9.11398 13.7789 8.47683 13.1846C8.89953 12.7363 9.32193 12.2152 9.73418 11.6366C10.4594 11.5742 11.1444 11.4722 11.7657 11.333C11.9692 12.1308 12.363 13.9823 11.4279 14.5071ZM4.56474 14.4997C3.63364 13.9791 4.05922 12.1914 4.27271 11.3608C4.8871 11.4926 5.56723 11.5874 6.29413 11.6445C6.70908 12.2107 7.14373 12.7312 7.58173 13.187C7.04058 13.6945 5.50018 15.0226 4.56474 14.4997ZM1.14367 8.73209C1.14367 7.68114 2.97396 7.14579 3.83245 6.91044C4.02018 7.50239 4.2664 8.12134 4.56354 8.74724C4.26255 9.38244 4.01281 10.0112 3.82335 10.6101C3.00477 10.3829 1.14367 9.78369 1.14367 8.73209ZM4.55478 2.99591C5.48968 2.47122 6.94028 3.74905 7.56088 4.3242C7.12513 4.77791 6.69448 5.29444 6.28308 5.85739C5.57763 5.92079 4.9023 6.02259 4.28147 6.15899C4.04855 5.2545 3.62089 3.52004 4.55478 2.99591ZM10.1926 6.53269C10.6712 6.59124 11.1297 6.66914 11.5603 6.76444C11.431 7.16614 11.2699 7.58619 11.0802 8.01679C10.8051 7.51079 10.5099 7.01494 10.1926 6.53269ZM8.01008 4.76819C8.30563 5.07863 8.60163 5.42529 8.89283 5.80139C8.30218 5.77429 7.71058 5.77419 7.11993 5.80099C7.41138 5.42838 7.70993 5.08223 8.01008 4.76819ZM4.93118 8.01634C4.74457 7.58724 4.58492 7.16534 4.45454 6.75789C4.88252 6.66504 5.33893 6.58914 5.81443 6.53154C5.49623 7.01274 5.20148 7.50839 4.93118 8.01634ZM5.82808 10.977C5.33688 10.9238 4.87356 10.8518 4.44571 10.7615C4.57815 10.3469 4.74132 9.91589 4.93191 9.47754C5.20593 9.99079 5.50518 10.4912 5.82808 10.977ZM8.02783 12.7399C7.72413 12.4221 7.42118 12.0707 7.12533 11.6927C7.71933 11.7153 8.31448 11.7153 8.90843 11.6896C8.61633 12.0745 8.32138 12.4265 8.02783 12.7399ZM11.0863 9.45524C11.2868 9.89834 11.4558 10.327 11.59 10.7346C11.1551 10.8308 10.6855 10.9083 10.1908 10.9659C10.5104 10.4745 10.8104 9.97094 11.0863 9.45524ZM9.37658 11.0412C8.46798 11.1041 7.55373 11.1034 6.64483 11.0463C6.12838 10.3149 5.66863 9.54564 5.27178 8.74704C5.66673 7.95009 6.12313 7.18234 6.63713 6.45204C7.54668 6.38539 8.46183 6.38519 9.37138 6.45244C9.88098 7.18269 10.3367 7.94844 10.7408 8.73819C10.3415 9.53474 9.88268 10.304 9.37658 11.0412ZM11.4181 2.97744C12.3532 3.50041 11.937 5.35777 11.7327 6.16544C11.1104 6.02619 10.4346 5.92259 9.72708 5.85819C9.31488 5.28916 8.88783 4.77173 8.45913 4.32388C9.08768 3.73635 10.492 2.45959 11.4181 2.97744Z" fill="#53C1DE"/>
    </g>
    <defs>
        <clipPath id="clip0_72_251">
            <rect width="16" height="16" fill="white" transform="translate(0.00292969 0.744141)"/>
        </clipPath>
    </defs>
</svg>
