<svg width="32" height="32" viewBox="0 0 16 17" fill="none" xmlns="http://www.w3.org/2000/svg">
    <g clip-path="url(#clip0_79_382)">
        <path d="M4.36108 6.12866H11.6103L12.016 9.91966C11.9643 10.5665 11.9395 10.5875 11.5582 10.8752C11.0893 11.1537 10.5212 11.3009 10.004 11.406C8.70673 11.6695 7.27348 11.6677 5.54373 11.0872C4.98023 10.91 4.72873 10.1327 4.76698 9.81346L4.36108 6.12866Z" fill="url(#paint0_linear_79_382)" stroke="#D3D3D3" stroke-width="0.24053"/>
        <path d="M-0.0388184 6.52952L7.78793 4.81152L15.9484 6.38627L8.07418 9.39302L-0.0388184 6.52952Z" fill="url(#paint1_linear_79_382)"/>
        <path d="M2.92283 10.1423L3.353 10.1309C3.59627 11.1196 4.04048 12.4938 3.90515 12.7176C3.7324 13.0864 2.91708 13.2421 2.72485 12.8214C2.73595 12.026 2.95528 11.2014 2.92283 10.1423Z" fill="url(#paint2_linear_79_382)"/>
        <path d="M8.63915 6.27409C8.35593 6.42896 7.76268 6.13546 7.66703 6.25902C7.65701 6.27197 7.6669 6.34524 7.66838 6.36696C7.90196 6.53766 8.35273 6.54079 8.62731 6.36908L8.63915 6.27409Z" fill="#B5BAC1"/>
        <path d="M7.96678 6.26711L8.20847 6.33869C6.98962 6.65131 3.76622 6.96464 3.17022 7.54789C2.99072 7.72706 3.16159 8.53872 3.1044 9.03262L2.82103 9.03419C2.86 8.55121 2.73653 7.83319 2.86336 7.55544C3.00164 7.27234 3.57393 6.90381 7.96678 6.26711Z" fill="url(#paint3_linear_79_382)"/>
        <path d="M3.25106 9.392L2.75928 9.46167L2.89599 10.2704L3.38778 10.2007L3.25106 9.392Z" fill="url(#paint4_linear_79_382)"/>
        <path d="M8.57975 6.15462C9.4748 5.85812 10.4043 5.60644 11.503 5.62312C11.5521 5.61144 11.6352 5.70105 11.4558 5.7058C10.4876 5.74438 9.58095 6.00862 8.6565 6.20777C8.53979 6.24717 8.50881 6.17614 8.57975 6.15462Z" fill="#DBDEE1"/>
        <path d="M8.59568 6.35798C9.65528 6.58698 10.7224 6.87883 11.7982 7.52543C11.8536 7.5424 11.8828 7.67617 11.7027 7.57771C10.7232 7.05906 9.67119 6.79241 8.64016 6.45308C8.50156 6.42393 8.51286 6.33793 8.59568 6.35798Z" fill="#DBDEE1"/>
        <path d="M7.97928 6.1903C6.93345 5.90155 5.84383 5.6458 4.53603 5.5899C4.47835 5.57766 4.37381 5.64272 4.58699 5.65771C5.73609 5.74877 6.79771 6.01294 7.88449 6.22716C8.02082 6.26539 8.06229 6.21164 7.97928 6.1903Z" fill="#DBDEE1"/>
        <path d="M3.37873 9.28751C3.37873 9.39044 3.33784 9.48915 3.26506 9.56193C3.19228 9.63472 3.09356 9.6756 2.99063 9.6756C2.8877 9.6756 2.78899 9.63472 2.71621 9.56193C2.64343 9.48915 2.60254 9.39044 2.60254 9.28751C2.60254 9.18458 2.64343 9.08587 2.71621 9.01309C2.78899 8.9403 2.8877 8.89941 2.99063 8.89941C3.09356 8.89941 3.19228 8.9403 3.26506 9.01309C3.33784 9.08587 3.37873 9.18458 3.37873 9.28751Z" fill="url(#paint5_linear_79_382)"/>
        <path d="M8.63913 6.27397C8.42116 6.43065 7.88758 6.42542 7.66431 6.27397C7.66431 6.16352 7.88253 6.07397 8.15171 6.07397C8.42091 6.07397 8.63913 6.16352 8.63913 6.27397Z" fill="url(#paint6_linear_79_382)"/>
        <path d="M8.76994 6.25105C9.66499 5.95455 10.5945 5.70288 11.6932 5.71955C11.7423 5.70787 11.8254 5.79748 11.6459 5.80223C10.6778 5.84082 9.77114 6.10506 8.84669 6.30421C8.72997 6.3436 8.699 6.27258 8.76994 6.25105Z" fill="#80848E"/>
        <path d="M8.44437 6.43669C9.51547 6.67101 10.5939 6.96854 11.6796 7.62274C11.7356 7.64002 11.7646 7.77461 11.5828 7.67493C10.5939 7.14973 9.53067 6.87761 8.48877 6.53248C8.34865 6.50263 8.36067 6.41622 8.44437 6.43669Z" fill="#80848E"/>
        <path d="M4.34729 5.56179C5.43021 5.65297 6.52734 5.79331 7.67054 6.21405C7.72772 6.22278 7.77106 6.32628 7.58064 6.26361C6.54709 5.93609 5.46781 5.81441 4.40164 5.63339C4.26007 5.62209 4.26242 5.55296 4.34729 5.56179Z" fill="#80848E"/>
    </g>
    <defs>
        <linearGradient id="paint0_linear_79_382" x1="4.33139" y1="8.85231" x2="12.0465" y2="8.85231" gradientUnits="userSpaceOnUse">
            <stop stop-color="#B5BAC1"/>
            <stop offset="0.21875" stop-color="#B1B6BD"/>
            <stop offset="0.453125" stop-color="#AFB4BB"/>
            <stop offset="1" stop-color="#80848E"/>
        </linearGradient>
        <linearGradient id="paint1_linear_79_382" x1="-0.0553139" y1="7.10274" x2="15.9659" y2="7.10274" gradientUnits="userSpaceOnUse">
            <stop stop-color="#DBDEE1"/>
            <stop offset="1" stop-color="#B5BAC1"/>
        </linearGradient>
        <linearGradient id="paint2_linear_79_382" x1="2.72485" y1="10.1309" x2="123.266" y2="10.1309" gradientUnits="userSpaceOnUse">
            <stop stop-color="#9906AA"/>
            <stop offset="1" stop-color="#DC0000"/>
        </linearGradient>
        <linearGradient id="paint3_linear_79_382" x1="2.80444" y1="6.26709" x2="543.207" y2="6.26709" gradientUnits="userSpaceOnUse">
            <stop stop-color="#9906AA"/>
            <stop offset="1" stop-color="#DC0000"/>
        </linearGradient>
        <linearGradient id="paint4_linear_79_382" x1="2.80937" y1="9.86901" x2="3.33495" y2="9.78016" gradientUnits="userSpaceOnUse">
            <stop stop-color="white"/>
            <stop offset="1" stop-color="#919191"/>
        </linearGradient>
        <linearGradient id="paint5_linear_79_382" x1="2.60254" y1="8.89941" x2="80.2215" y2="8.89941" gradientUnits="userSpaceOnUse">
            <stop stop-color="#9906AA"/>
            <stop offset="1" stop-color="#DC0000"/>
        </linearGradient>
        <linearGradient id="paint6_linear_79_382" x1="7.66431" y1="6.07397" x2="105.147" y2="6.07397" gradientUnits="userSpaceOnUse">
            <stop stop-color="#9906AA"/>
            <stop offset="1" stop-color="#DC0000"/>
        </linearGradient>
        <clipPath id="clip0_79_382">
            <rect width="16" height="16" fill="white" transform="translate(0 0.858643)"/>
        </clipPath>
    </defs>
</svg>
